<svg class="gridItem__media" version="1.1" id="Layer_1" xmlns="http://www.w3.org/2000/svg" xmlns:xlink="http://www.w3.org/1999/xlink" x="0px" y="0px" width="1600" height="1200" viewBox="0 0 1600 1200" style="enable-background:new 0 0 1600 1200;" xml:space="preserve" fill="none">
<path d="M1316.49 1060.38L1400.26 723.61C1402.68 713.849 1402.4 703.611 1399.44 694L1258 235.24C1254.74 224.659 1248.37 215.301 1239.73 208.38C1231.09 201.46 1220.57 197.296 1209.53 196.43L489.527 139.79C481.179 139.13 472.791 140.376 464.995 143.434C457.199 146.491 450.2 151.281 444.527 157.44L184.997 439.16C179.677 444.934 175.649 451.775 173.18 459.227C170.711 466.679 169.857 474.572 170.677 482.38L231.437 1060.38H1316.49Z" fill="#F4F4F4"/>
<path d="M1382.51 1060.38H169.047" stroke="#B1B5BA" stroke-miterlimit="10"/>
<path d="M1249.63 747.281H1327.35C1327.87 747.285 1328.39 747.185 1328.87 746.989C1329.35 746.792 1329.78 746.502 1330.15 746.135C1330.51 745.769 1330.8 745.333 1331 744.853C1331.2 744.373 1331.3 743.859 1331.29 743.341C1331.3 742.822 1331.2 742.308 1331 741.828C1330.8 741.348 1330.51 740.912 1330.15 740.546C1329.78 740.179 1329.35 739.889 1328.87 739.692C1328.39 739.496 1327.87 739.397 1327.35 739.401H1249.63V747.281V747.281Z" fill="#B0B4B9"/>
<path d="M1317.26 743.47H1238.85V984.94H1317.26V743.47Z" fill="#B0B4B9"/>
<path d="M1241.28 743.47H1001.44V984.94H1241.28V743.47Z" fill="#D8DBDD"/>
<path d="M1229.13 966.52H1012.67V777.05L1229.12 777.28V966.52H1229.13ZM1014.41 964.78H1227.41V779H1014.41V964.78Z" fill="#B0B4B9"/>
<path d="M992.524 747.281H1249.74C1250.26 747.285 1250.78 747.185 1251.26 746.989C1251.74 746.792 1252.17 746.502 1252.54 746.135C1252.91 745.769 1253.2 745.333 1253.39 744.853C1253.59 744.373 1253.69 743.859 1253.68 743.341C1253.69 742.822 1253.59 742.308 1253.39 741.828C1253.2 741.348 1252.91 740.912 1252.54 740.546C1252.17 740.179 1251.74 739.889 1251.26 739.692C1250.78 739.496 1250.26 739.397 1249.74 739.401H992.534C992.015 739.397 991.501 739.496 991.021 739.692C990.542 739.889 990.106 740.179 989.739 740.546C989.372 740.912 989.082 741.348 988.886 741.828C988.689 742.308 988.59 742.822 988.594 743.341C988.609 744.379 989.028 745.371 989.761 746.106C990.495 746.841 991.485 747.262 992.524 747.281Z" fill="#D8DBDD"/>
<path d="M1229.12 870.62H1012.67V872.36H1229.12V870.62Z" fill="#B0B4B9"/>
<path d="M1111.58 807.51C1114.91 807.51 1117.6 804.815 1117.6 801.49C1117.6 798.165 1114.91 795.47 1111.58 795.47C1108.26 795.47 1105.56 798.165 1105.56 801.49C1105.56 804.815 1108.26 807.51 1111.58 807.51Z" fill="#B0B4B9"/>
<path opacity="0.15" d="M1113.78 801.49C1113.79 800.245 1113.4 799.03 1112.69 798.012C1111.97 796.994 1110.95 796.225 1109.78 795.81C1110.42 795.567 1111.1 795.448 1111.78 795.46C1113.37 795.46 1114.9 796.092 1116.02 797.217C1117.15 798.342 1117.78 799.868 1117.78 801.46C1117.78 803.051 1117.15 804.577 1116.02 805.702C1114.9 806.828 1113.37 807.46 1111.78 807.46C1111.1 807.464 1110.42 807.348 1109.78 807.12C1110.94 806.701 1111.95 805.938 1112.66 804.932C1113.38 803.925 1113.77 802.724 1113.78 801.49Z" fill="black"/>
<path d="M1111.58 900.74C1114.91 900.74 1117.6 898.045 1117.6 894.72C1117.6 891.395 1114.91 888.7 1111.58 888.7C1108.26 888.7 1105.56 891.395 1105.56 894.72C1105.56 898.045 1108.26 900.74 1111.58 900.74Z" fill="#B0B4B9"/>
<path opacity="0.15" d="M1113.78 894.72C1113.79 893.476 1113.4 892.26 1112.69 891.243C1111.97 890.225 1110.95 889.455 1109.78 889.04C1110.42 888.801 1111.1 888.686 1111.78 888.7C1113.37 888.7 1114.9 889.333 1116.02 890.458C1117.15 891.583 1117.78 893.109 1117.78 894.7C1117.78 896.292 1117.15 897.818 1116.02 898.943C1114.9 900.068 1113.37 900.7 1111.78 900.7C1111.1 900.704 1110.42 900.589 1109.78 900.36C1110.94 899.942 1111.95 899.177 1112.67 898.168C1113.38 897.16 1113.77 895.957 1113.78 894.72Z" fill="black"/>
<path d="M1253.68 755.38L1241.28 747.28H1001.44V751L1253.68 755.38Z" fill="#B0B4B9"/>
<path d="M1301.85 984.93L1307.85 1051.75C1307.96 1052.32 1307.95 1052.91 1307.81 1053.47C1307.66 1054.03 1307.4 1054.56 1307.04 1055.01C1306.67 1055.46 1306.22 1055.83 1305.7 1056.09C1305.17 1056.35 1304.6 1056.49 1304.02 1056.5C1303.21 1056.49 1302.41 1056.23 1301.75 1055.75C1301.09 1055.27 1300.6 1054.6 1300.33 1053.83L1282.84 984.92L1301.85 984.93Z" fill="#D8DBDD"/>
<path d="M1299.66 1023.85L1292.36 1022.11L1283 985.05H1302L1308 1051.87C1308.17 1052.76 1308.03 1053.67 1307.61 1054.47C1307.19 1055.27 1306.51 1055.9 1305.69 1056.27L1299.66 1023.85Z" fill="#B0B4B9"/>
<path d="M1233.65 984.93L1239.65 1051.75C1239.76 1052.32 1239.74 1052.91 1239.6 1053.47C1239.46 1054.03 1239.2 1054.56 1238.84 1055.01C1238.47 1055.46 1238.02 1055.83 1237.5 1056.09C1236.98 1056.34 1236.41 1056.48 1235.83 1056.5C1235.01 1056.49 1234.22 1056.22 1233.56 1055.74C1232.9 1055.27 1232.4 1054.6 1232.13 1053.83L1214.65 984.92L1233.65 984.93Z" fill="#D8DBDD"/>
<path d="M1227.27 992.35L1216.38 990.26L1214.53 984.94H1233.53L1239.53 1051.76C1239.69 1052.65 1239.55 1053.56 1239.13 1054.36C1238.71 1055.16 1238.03 1055.79 1237.21 1056.16L1227.27 992.35Z" fill="#B0B4B9"/>
<path d="M1083.32 984.93L1077.32 1051.75C1077.21 1052.32 1077.23 1052.91 1077.37 1053.47C1077.51 1054.03 1077.77 1054.56 1078.14 1055.01C1078.5 1055.46 1078.96 1055.83 1079.48 1056.09C1080 1056.35 1080.57 1056.49 1081.15 1056.5C1081.97 1056.49 1082.76 1056.23 1083.42 1055.75C1084.08 1055.27 1084.58 1054.6 1084.84 1053.83L1102.33 984.92L1083.32 984.93Z" fill="#D8DBDD"/>
<path d="M1086.68 1020.48L1080.2 1018.86L1083.33 984.92H1102.33L1084.85 1053.83C1084.58 1054.6 1084.08 1055.27 1083.42 1055.74C1082.76 1056.22 1081.97 1056.49 1081.15 1056.5H1080.92L1086.68 1020.48Z" fill="#B0B4B9"/>
<path d="M1013.26 984.93L1007.26 1051.75C1007.15 1052.32 1007.17 1052.91 1007.31 1053.47C1007.45 1054.03 1007.71 1054.56 1008.07 1055.01C1008.43 1055.46 1008.89 1055.83 1009.41 1056.09C1009.93 1056.34 1010.5 1056.48 1011.08 1056.5C1011.89 1056.49 1012.69 1056.22 1013.35 1055.74C1014.01 1055.27 1014.51 1054.6 1014.78 1053.83L1032.26 984.92L1013.26 984.93Z" fill="#D8DBDD"/>
<path d="M1020.66 990.72L1012.33 989.22L1013.26 984.93H1032.26L1014.78 1053.84C1014.51 1054.61 1014.01 1055.28 1013.35 1055.75C1012.69 1056.23 1011.9 1056.49 1011.08 1056.51H1010.85L1020.66 990.72Z" fill="#B0B4B9"/>
<path d="M1167.8 606.74C1161.66 602.891 1154.72 600.497 1147.51 599.74C1144.19 599.4 1140.51 599.49 1137.91 601.51C1137.35 601.94 1136.79 602.56 1136.91 603.25C1137.06 603.757 1137.39 604.191 1137.84 604.47C1142.15 607.536 1147.22 609.368 1152.49 609.766C1157.77 610.164 1163.05 609.114 1167.78 606.73" fill="#D1D3D4"/>
<path d="M1167.28 606.16C1162.59 602.705 1158.21 598.85 1154.18 594.64C1150.15 590.381 1147.32 585.134 1145.97 579.43C1145.7 578.584 1145.62 577.691 1145.74 576.812C1145.85 575.933 1146.16 575.089 1146.63 574.34C1157.07 582.51 1165.33 593.05 1167.21 606.14" fill="#D1D3D4"/>
<path d="M1167.69 606.67C1166.72 600.966 1166.81 595.134 1167.94 589.46C1169.1 583.738 1172.37 578.661 1177.1 575.24C1178.97 579.47 1178.1 584.33 1176.86 588.74C1174.88 595.569 1171.81 602.032 1167.77 607.88" fill="#D1D3D4"/>
<path d="M1177.93 625.061C1171.78 626.043 1166.09 628.92 1161.65 633.291C1156.96 637.539 1153.7 643.124 1152.29 649.291C1158.39 648.911 1163.52 644.611 1167.29 639.781C1171.06 634.951 1173.65 629.681 1177.77 625.171" fill="#858990"/>
<path d="M1180.15 628C1177.71 621.779 1176.85 615.047 1177.66 608.413C1178.47 601.779 1180.92 595.45 1184.79 590C1186.65 596.316 1187.2 602.945 1186.4 609.48C1185.6 616.014 1183.48 622.317 1180.15 628" fill="#D1D3D4"/>
<path d="M1193.7 644.071C1188.02 643.724 1182.35 645.055 1177.42 647.9C1172.48 650.744 1168.49 654.976 1165.93 660.071C1165.72 660.385 1165.59 660.751 1165.55 661.132C1165.52 661.512 1165.59 661.895 1165.75 662.241C1165.99 662.484 1166.29 662.663 1166.62 662.759C1166.94 662.855 1167.29 662.866 1167.62 662.791C1173.08 662.431 1177.93 659.141 1181.93 655.401C1185.93 651.661 1189.41 647.321 1193.83 644.081" fill="#D1D3D4"/>
<path d="M1193.27 643.19C1190.35 633.814 1190.17 623.797 1192.74 614.32C1193.74 610.58 1195.47 606.69 1198.92 604.97C1199.06 604.877 1199.21 604.814 1199.37 604.784C1199.53 604.755 1199.7 604.76 1199.85 604.8C1200.14 604.942 1200.35 605.19 1200.45 605.49C1201.61 608.087 1202.1 610.927 1201.89 613.76C1201.7 616.591 1201.27 619.401 1200.6 622.16C1199.52 627.29 1198.94 632.79 1196.13 637.16C1195.44 638.225 1194.82 639.33 1194.26 640.47C1193.72 641.59 1193.72 641.98 1193.26 642.88" fill="#B2B6BB"/>
<path d="M1229.09 648.52C1227.89 643.25 1227.86 637.781 1228.98 632.495C1230.11 627.209 1232.38 622.232 1235.62 617.91C1235.82 617.573 1236.09 617.288 1236.42 617.079C1236.74 616.87 1237.12 616.744 1237.5 616.71C1238.66 616.83 1238.97 618.4 1238.92 619.56C1238.44 629.956 1235.04 640.006 1229.11 648.56" fill="#D1D3D4"/>
<path d="M1232.31 650.73C1238.59 652.199 1245.1 652.291 1251.41 650.997C1257.73 649.704 1263.68 647.058 1268.87 643.24C1262.75 640.179 1255.76 639.321 1249.08 640.81C1242.48 641.994 1236.51 645.489 1232.24 650.67" fill="#D1D3D4"/>
<path d="M1235 644C1238.63 638.414 1243.52 633.765 1249.29 630.432C1255.06 627.099 1261.53 625.176 1268.18 624.82C1267.28 627.451 1265.85 629.871 1263.98 631.934C1262.11 633.996 1259.85 635.659 1257.32 636.82C1252.25 639.093 1246.89 640.661 1241.4 641.48C1239.29 641.89 1236.4 642.34 1235 644Z" fill="#B2B6BB"/>
<path d="M1229.77 611.38C1231.85 605.085 1233.27 598.589 1234 592C1234.73 585.321 1233.37 578.58 1230.1 572.71C1226.84 578.725 1225.08 585.442 1224.98 592.286C1224.88 599.13 1226.45 605.895 1229.54 612" fill="#D1D3D4"/>
<path d="M1251.38 600.48C1258.86 586.84 1274.2 575.93 1289.69 574.41C1283.69 589.29 1267.41 600.79 1251.38 600.48Z" fill="#858990"/>
<path d="M1246.66 603.15C1257.89 604.85 1267.39 612 1277.85 616.25C1280.05 617.309 1282.48 617.777 1284.9 617.61C1286.01 617.548 1287.07 617.161 1287.96 616.497C1288.84 615.833 1289.51 614.922 1289.88 613.879C1290.25 612.836 1290.3 611.707 1290.03 610.634C1289.76 609.561 1289.17 608.593 1288.35 607.85C1286.88 606.481 1285.14 605.423 1283.24 604.74C1271.84 599.99 1259.63 599.88 1247.69 602.74" fill="#D1D3D4"/>
<path d="M1240.19 611C1242.71 611.73 1243.58 613 1245.6 614.74C1252.43 620.569 1260.52 624.732 1269.24 626.9C1270.14 627.13 1271.32 627.22 1271.77 626.4C1272.22 625.58 1271.77 624.83 1271.15 624.19C1267.35 619.73 1262.42 616.381 1256.88 614.5C1251.41 612.5 1246.7 610.01 1240.19 610.5" fill="#D1D3D4"/>
<path d="M1232.87 563.58C1237.46 567.811 1242.88 571.036 1248.79 573.048C1254.7 575.059 1260.97 575.813 1267.19 575.26C1267.76 575.26 1268.3 575.058 1268.74 574.69C1269.62 573.76 1268.57 572.3 1267.56 571.51C1257.48 563.66 1245.26 560.4 1232.87 563.58" fill="#D1D3D4"/>
<path d="M1241.54 560.42C1247.62 555.941 1254.67 552.965 1262.11 551.736C1269.56 550.507 1277.19 551.06 1284.38 553.35C1278.78 558.554 1271.59 561.724 1263.97 562.35C1256.44 563.042 1248.84 562.409 1241.52 560.48" fill="#B2B6BB"/>
<path d="M1238.09 538.62C1237.09 528.56 1237.74 520.62 1237.09 510.56C1237.09 509.76 1236.86 508.78 1236.09 508.48C1235.32 508.18 1234.22 509.38 1233.83 510.48C1232.35 515.174 1231.97 520.143 1232.71 525.007C1233.45 529.871 1235.3 534.5 1238.11 538.54" fill="#D1D3D4"/>
<path d="M1237.36 539.75C1243.94 535.494 1249.61 529.982 1254.05 523.53C1257.35 519.02 1260.11 513.61 1259.37 508.09C1257.05 508.157 1254.78 508.729 1252.71 509.765C1250.63 510.801 1248.81 512.277 1247.37 514.09C1244.49 517.737 1242.4 521.942 1241.23 526.44C1239.9 530.85 1238.97 535.44 1237.49 539.78" fill="#D1D3D4"/>
<path d="M1253.75 535.26C1268.76 529.665 1282.65 521.425 1294.75 510.93C1289.85 509.06 1284.24 510.15 1279.33 512.13C1268.2 516.338 1259.01 524.488 1253.5 535.03" fill="#858990"/>
<path d="M1242 545.25C1249.55 546.321 1257.22 546.358 1264.78 545.36C1272.12 543.832 1279.26 541.46 1286.05 538.29C1286.66 538.119 1287.18 537.722 1287.51 537.18C1287.63 536.854 1287.65 536.497 1287.55 536.161C1287.46 535.825 1287.26 535.527 1286.99 535.31C1286.44 534.881 1285.8 534.593 1285.12 534.47C1277.49 532.615 1269.48 533.092 1262.12 535.84C1255.08 538.238 1248.31 541.372 1241.93 545.19" fill="#D1D3D4"/>
<path d="M1198.71 563.921C1196.26 558.71 1194.96 553.036 1194.9 547.281C1194.84 541.526 1196.01 535.824 1198.34 530.561C1201.48 535.351 1201.87 541.451 1201.34 547.161C1200.81 552.871 1199.02 558.721 1198.91 564.441" fill="#D1D3D4"/>
<path d="M1178.06 553.52C1171.59 553.43 1165.17 554.693 1159.21 557.228C1153.25 559.762 1147.89 563.513 1143.46 568.24C1149.99 569.019 1156.59 567.791 1162.4 564.72C1168.17 561.671 1173.61 558.035 1178.64 553.87" fill="#D1D3D4"/>
<path d="M1164.17 548.86C1157.85 548.35 1151.77 547.57 1145.71 549.44C1142.64 550.295 1139.8 551.803 1137.37 553.861C1134.94 555.918 1132.99 558.476 1131.64 561.36C1137.62 561.852 1143.61 560.726 1149 558.1C1154.34 555.481 1159.43 552.388 1164.22 548.86" fill="#D1D3D4"/>
<path d="M1184.74 549.08C1179.12 545.34 1173.21 541.6 1166.61 540.03C1160.01 538.46 1152.31 539.62 1147.71 544.61C1153.06 547.75 1159.55 548.13 1165.77 548.11C1171.99 548.09 1179.59 548.11 1185.43 550.11" fill="#D1D3D4"/>
<path d="M1184.75 549.38C1175.04 539.84 1171.36 522.7 1175.27 509.68C1182.94 521.413 1186.29 535.447 1184.75 549.38" fill="#858990"/>
<path d="M1211.41 522.37C1213.29 518.1 1214.52 513.63 1216.17 509.27C1217.68 504.886 1219.98 500.817 1222.96 497.27C1226 493.705 1230.3 491.469 1234.96 491.04C1233.47 497.609 1230.62 503.793 1226.6 509.198C1222.58 514.603 1217.48 519.11 1211.61 522.43" fill="#858990"/>
<path d="M1206.63 528C1203.63 523.83 1200.1 518.16 1196 515C1194.01 513.364 1191.68 512.182 1189.18 511.537C1186.67 510.891 1184.06 510.796 1181.52 511.26C1184.11 515.829 1187.72 519.73 1192.08 522.654C1196.44 525.578 1201.43 527.443 1206.63 528.1" fill="#B2B6BB"/>
<path d="M1207.67 522.7C1205.47 517.73 1203.84 512.527 1202.81 507.19C1201.81 501.81 1202.67 496.25 1205.24 491.42C1210.57 501.49 1212.24 512.3 1207.88 522.81" fill="#D1D3D4"/>
<path d="M1211.51 491.42C1214.51 481.42 1223.69 474.06 1233.57 470.69C1234.79 470.189 1236.11 469.99 1237.42 470.11C1238.07 470.178 1238.7 470.441 1239.2 470.866C1239.71 471.29 1240.08 471.855 1240.26 472.49C1240.64 474.19 1239.26 475.71 1237.91 476.85C1230.18 483.436 1221.2 488.392 1211.51 491.42" fill="#D1D3D4"/>
<path d="M1211.62 483.25C1211.72 476.787 1212.69 470.366 1214.5 464.16C1216.6 458.06 1220.64 452.34 1226.5 449.66C1227.5 456.17 1224.63 462.66 1221.17 468.24C1217.71 473.82 1213.54 479.13 1211.46 485.36" fill="#B2B6BB"/>
<path d="M1211.41 487.68C1208.91 480.4 1208.66 471.14 1204.31 464.8C1201.31 460.36 1196.37 457.31 1193.73 452.66C1192.16 457.163 1192.38 462.097 1194.35 466.44C1196.34 470.737 1199.07 474.647 1202.42 477.99C1205.65 481.45 1208.42 483.99 1211.42 487.68" fill="#858990"/>
<path d="M1211.51 702.081C1211.32 702.081 1211.15 653.441 1211.13 593.571C1211.11 533.701 1211.27 485.061 1211.47 485.061C1211.67 485.061 1211.83 533.701 1211.85 593.571C1211.87 653.441 1211.71 702.081 1211.51 702.081Z" fill="#D1D3D4"/>
<path d="M1254 556.601C1253.4 556.882 1252.77 557.109 1252.13 557.281L1247.13 558.981C1242.89 560.421 1237.07 562.521 1230.75 565.101C1224.43 567.681 1218.6 569.961 1215.24 572.881C1213.89 573.989 1212.82 575.401 1212.13 577.001C1211.64 578.141 1211.55 578.871 1211.49 578.871C1211.43 578.871 1211.49 578.681 1211.49 578.361C1211.56 577.876 1211.68 577.4 1211.85 576.941C1212.47 575.248 1213.5 573.737 1214.85 572.541C1216.87 570.829 1219.14 569.418 1221.57 568.351C1224.26 567.101 1227.18 565.791 1230.41 564.501C1236.76 561.901 1242.61 559.881 1246.9 558.501C1249.05 557.831 1250.79 557.341 1252 557.001C1252.65 556.796 1253.32 556.662 1254 556.601V556.601Z" fill="#D1D3D4"/>
<path d="M1267.88 522.42C1267.72 522.617 1267.55 522.798 1267.35 522.96L1265.8 524.44L1260.06 529.64L1240.69 546.89C1233.21 553.61 1226.61 559.99 1221.99 564.89C1219.7 567.3 1217.93 569.31 1216.71 570.71L1215.31 572.32C1214.97 572.67 1214.8 572.86 1214.78 572.84C1214.89 572.618 1215.03 572.41 1215.19 572.22C1215.49 571.83 1215.9 571.22 1216.5 570.52C1217.66 569.08 1219.38 567.02 1221.61 564.52C1227.46 558.139 1233.64 552.07 1240.13 546.34C1247.62 539.62 1254.61 533.6 1259.63 529.24L1265.63 524.13L1267.27 522.77C1267.46 522.628 1267.66 522.51 1267.88 522.42V522.42Z" fill="#D1D3D4"/>
<path d="M1232.46 553.8C1232.26 553.8 1233.83 550.05 1235.46 545.45C1237.09 540.85 1237.78 536.96 1237.98 537C1237.82 539.974 1237.19 542.904 1236.11 545.68C1235.45 547.67 1234.67 549.617 1233.76 551.51C1233.45 552.334 1233.01 553.106 1232.46 553.8V553.8Z" fill="#D1D3D4"/>
<path d="M1211.56 583.211C1211.14 582.785 1210.75 582.327 1210.39 581.841L1207.39 578.101C1204.88 574.861 1201.39 570.391 1197.53 565.491C1193.67 560.591 1190.05 556.141 1187.53 553.031L1184.53 549.291C1184.15 548.848 1183.81 548.365 1183.53 547.851C1183.98 548.236 1184.4 548.661 1184.78 549.121C1185.57 549.961 1186.65 551.201 1188.02 552.751C1190.69 555.841 1194.34 560.231 1198.23 565.101C1202.12 569.971 1205.51 574.451 1207.92 577.841C1209.14 579.501 1210.09 580.841 1210.73 581.841C1211.05 582.267 1211.33 582.727 1211.56 583.211V583.211Z" fill="#D1D3D4"/>
<path d="M1202.25 571.25C1200.37 569.18 1199.03 566.675 1198.36 563.96C1197.62 561.581 1197.32 559.086 1197.48 556.6H1197.78C1197.65 557.16 1197.53 557.46 1197.48 557.46C1197.43 557.46 1197.48 557.13 1197.48 556.55H1197.78C1197.93 558.969 1198.35 561.364 1199.03 563.69C1199.91 566.289 1200.98 568.817 1202.25 571.25V571.25Z" fill="#D1D3D4"/>
<path d="M1190.24 556.14C1189.4 555.508 1188.48 554.978 1187.52 554.56C1185.08 553.844 1182.52 553.653 1180 554C1177.43 554.192 1174.89 554.597 1172.39 555.21C1171.36 555.531 1170.32 555.788 1169.26 555.98C1170.19 555.41 1171.2 554.992 1172.26 554.74C1174.76 553.969 1177.34 553.48 1179.95 553.28C1182.58 552.939 1185.26 553.231 1187.76 554.13C1188.79 554.501 1189.66 555.209 1190.24 556.14Z" fill="#D1D3D4"/>
<path d="M1187.39 552.49C1187.39 552.58 1185.8 551.85 1183.22 550.95C1179.85 549.818 1176.36 549.103 1172.82 548.82C1169.28 548.559 1165.71 548.74 1162.21 549.36C1159.52 549.85 1157.89 550.36 1157.85 550.22C1158.2 550.017 1158.57 549.863 1158.96 549.76C1159.99 549.397 1161.05 549.103 1162.12 548.88C1165.65 548.101 1169.27 547.849 1172.87 548.13C1176.48 548.39 1180.02 549.189 1183.39 550.5C1184.42 550.887 1185.42 551.338 1186.39 551.85C1187.09 552.21 1187.41 552.43 1187.39 552.49Z" fill="#D1D3D4"/>
<path d="M1211.41 537C1210.19 533.543 1209.19 530.012 1208.41 526.43C1207.39 522.906 1206.6 519.318 1206.05 515.69C1207.27 519.146 1208.27 522.677 1209.05 526.26C1210.06 529.787 1210.85 533.374 1211.41 537V537Z" fill="#D1D3D4"/>
<path d="M1211.66 537C1210.69 534.81 1209.57 532.694 1208.29 530.67C1206.85 528.756 1205.17 527.036 1203.29 525.55C1203.99 525.721 1204.63 526.065 1205.16 526.55C1206.57 527.583 1207.8 528.848 1208.79 530.29C1210.32 532.238 1211.3 534.551 1211.66 537Z" fill="#D1D3D4"/>
<path d="M1211.51 676.19C1211.51 676.19 1211.3 675.03 1210.74 672.95C1209.94 670.051 1208.85 667.238 1207.5 664.55C1202.83 655.739 1197.05 647.565 1190.29 640.23C1186.44 635.84 1182.72 631.7 1179.53 627.73C1176.71 624.235 1174.14 620.535 1171.86 616.66C1170.34 614.041 1169.04 611.294 1167.99 608.45C1167.64 607.45 1167.37 606.57 1167.22 606.09C1167.14 605.815 1167.07 605.534 1167.02 605.25L1168.23 608.33C1169.4 611.119 1170.75 613.822 1172.29 616.42C1174.61 620.234 1177.2 623.876 1180.04 627.32C1183.22 631.25 1186.96 635.32 1190.82 639.78C1197.64 647.148 1203.42 655.415 1208 664.35C1209.33 667.087 1210.36 669.961 1211.07 672.92C1211.26 673.721 1211.41 674.533 1211.5 675.35C1211.55 675.628 1211.55 675.911 1211.51 676.19V676.19Z" fill="#D1D3D4"/>
<path d="M1249.86 632.88C1249.22 633.288 1248.55 633.662 1247.86 634C1246.04 635.021 1244.3 636.171 1242.64 637.44C1240.18 639.37 1237.88 641.486 1235.74 643.77C1233.34 646.31 1230.85 649.25 1228.25 652.41C1223.25 658.75 1218.49 664.41 1215.66 668.84C1214.22 671.06 1213.17 672.94 1212.48 674.24C1212.17 674.935 1211.8 675.604 1211.38 676.24C1211.42 676.044 1211.48 675.853 1211.56 675.67C1211.71 675.3 1211.92 674.76 1212.24 674.08C1213.13 672.153 1214.14 670.28 1215.24 668.47C1219.09 662.708 1223.25 657.169 1227.72 651.88C1230.25 648.7 1232.72 645.76 1235.2 643.21C1237.36 640.96 1239.7 638.889 1242.2 637.02C1243.9 635.774 1245.71 634.673 1247.59 633.73C1248.26 633.39 1248.8 633.19 1249.16 633.04C1249.38 632.934 1249.62 632.879 1249.86 632.88Z" fill="#D1D3D4"/>
<path d="M1250.7 646.93C1249.3 647.237 1247.89 647.444 1246.46 647.55C1243.05 647.9 1239.68 648.57 1236.39 649.55C1233.15 650.613 1230.11 652.211 1227.39 654.28C1225.3 655.89 1224.33 657.22 1224.23 657.15C1224.13 657.08 1224.4 656.75 1224.85 656.15C1225.53 655.336 1226.28 654.58 1227.08 653.89C1229.77 651.655 1232.86 649.957 1236.19 648.89C1239.53 647.878 1242.96 647.251 1246.44 647.02C1247.86 646.852 1249.28 646.821 1250.7 646.93V646.93Z" fill="#D1D3D4"/>
<path d="M1225.35 655.57C1225.13 655.44 1227.06 652.52 1228.53 648.57C1230 644.62 1230.25 641.09 1230.53 641.09C1230.67 641.843 1230.67 642.616 1230.53 643.37C1230.34 645.203 1229.92 647.006 1229.29 648.74C1228.67 650.467 1227.84 652.118 1226.84 653.66C1226.47 654.382 1225.96 655.029 1225.35 655.57V655.57Z" fill="#D1D3D4"/>
<path d="M1262.28 595.12C1262.08 595.271 1261.85 595.392 1261.61 595.48L1259.61 596.4C1258.73 596.77 1257.74 597.24 1256.48 597.87C1255.22 598.5 1253.88 599.13 1252.42 600.01L1250.11 601.32C1249.3 601.79 1248.5 602.32 1247.65 602.87C1245.95 603.87 1244.23 605.17 1242.42 606.48C1234.61 612.302 1227.78 619.346 1222.21 627.34C1220.96 629.21 1219.74 630.97 1218.77 632.71C1218.26 633.57 1217.77 634.38 1217.31 635.2L1216.07 637.56C1215.25 639.05 1214.65 640.48 1214.07 641.69C1213.49 642.9 1213.07 643.99 1212.71 644.87L1211.86 646.87C1211.79 647.118 1211.68 647.351 1211.53 647.56C1211.57 647.311 1211.64 647.067 1211.73 646.83C1211.92 646.29 1212.16 645.6 1212.44 644.76C1212.81 643.658 1213.24 642.577 1213.72 641.52C1214.28 640.29 1214.82 638.83 1215.59 637.31C1215.98 636.56 1216.37 635.76 1216.8 634.92C1217.23 634.08 1217.74 633.27 1218.23 632.39C1219.23 630.63 1220.4 628.84 1221.63 626.95C1227.18 618.829 1234.07 611.711 1242 605.9C1243.87 604.61 1245.59 603.34 1247.33 602.33C1248.17 601.8 1248.99 601.26 1249.8 600.79L1252.15 599.52C1253.63 598.66 1255.05 598.04 1256.29 597.46C1257.53 596.88 1258.59 596.46 1259.47 596.08L1261.53 595.29C1261.78 595.209 1262.03 595.153 1262.28 595.12Z" fill="#D1D3D4"/>
<path d="M1232 615.48C1232.29 614.499 1232.87 613.63 1233.67 612.99C1235.54 611.371 1237.92 610.458 1240.39 610.41C1242.82 610.401 1245.23 610.87 1247.48 611.79C1248.43 612.09 1249.33 612.532 1250.15 613.1C1249.18 612.901 1248.23 612.62 1247.31 612.26C1245.09 611.507 1242.76 611.122 1240.42 611.12C1238.09 611.161 1235.84 611.95 1233.99 613.37C1233.28 614.027 1232.61 614.732 1232 615.48V615.48Z" fill="#D1D3D4"/>
<path d="M1227.39 620.16C1229.39 616.243 1229.9 611.735 1228.83 607.47C1229.21 608.041 1229.48 608.674 1229.64 609.34C1230.04 610.897 1230.15 612.513 1229.97 614.11C1229.78 615.701 1229.3 617.243 1228.55 618.66C1228 619.65 1227.47 620.21 1227.39 620.16Z" fill="#D1D3D4"/>
<path d="M1178 683.15C1179 701.71 1184.65 720.57 1193.25 739.67H1230.67C1238.86 720.77 1244.08 701.93 1245 683.15H1178Z" fill="#858990"/>
<path d="M1238.9 713.18C1238.9 713.38 1226.59 713.53 1211.4 713.53C1196.21 713.53 1183.88 713.38 1183.88 713.18C1183.88 712.98 1196.19 712.84 1211.4 712.84C1226.61 712.84 1238.9 713 1238.9 713.18Z" fill="white"/>
<path d="M1238.06 719.911C1238.06 720.101 1226.51 720.271 1212.28 720.271C1198.05 720.271 1186.48 720.101 1186.48 719.911C1186.48 719.721 1198.02 719.561 1212.28 719.561C1226.54 719.561 1238.06 719.711 1238.06 719.911Z" fill="white"/>
<path d="M1193.81 695.33C1194.28 701.07 1194.28 706.84 1193.81 712.58C1193.36 706.839 1193.36 701.071 1193.81 695.33Z" fill="white"/>
<path d="M1213.87 695.33C1214.34 701.271 1214.34 707.239 1213.87 713.18C1213.39 707.24 1213.39 701.27 1213.87 695.33V695.33Z" fill="white"/>
<path d="M1232.69 695.18C1233.14 701.238 1233.14 707.321 1232.69 713.38C1232.21 707.323 1232.21 701.237 1232.69 695.18V695.18Z" fill="white"/>
<path d="M1243.78 695.33C1243.78 695.54 1229.32 695.69 1211.51 695.69C1193.7 695.69 1179.24 695.54 1179.24 695.33C1179.24 695.12 1193.68 694.99 1211.51 694.99C1229.34 694.99 1243.78 695.14 1243.78 695.33Z" fill="white"/>
<path d="M1126.93 310.75H428.774C419.285 310.75 411.594 318.442 411.594 327.93V847.51C411.594 856.998 419.285 864.69 428.774 864.69H1126.93C1136.42 864.69 1144.11 856.998 1144.11 847.51V327.93C1144.11 318.442 1136.42 310.75 1126.93 310.75Z" class="change-color-in-svg" fill="#4D61FC"/>
<path opacity="0.6" d="M1126.93 310.75H428.774C419.285 310.75 411.594 318.442 411.594 327.93V847.51C411.594 856.998 419.285 864.69 428.774 864.69H1126.93C1136.42 864.69 1144.11 856.998 1144.11 847.51V327.93C1144.11 318.442 1136.42 310.75 1126.93 310.75Z" fill="white"/>
<path d="M1118.66 310.75H420.5C411.012 310.75 403.32 318.442 403.32 327.93V847.51C403.32 856.998 411.012 864.69 420.5 864.69H1118.66C1128.15 864.69 1135.84 856.998 1135.84 847.51V327.93C1135.84 318.442 1128.15 310.75 1118.66 310.75Z" fill="white"/>
<path d="M420.5 310.75H460.36V864.7H420.5C415.944 864.7 411.574 862.89 408.352 859.668C405.13 856.446 403.32 852.076 403.32 847.52V327.93C403.32 323.374 405.13 319.004 408.352 315.782C411.574 312.56 415.944 310.75 420.5 310.75Z" class="change-color-in-svg" fill="#4D61FC"/>
<path d="M443.656 333.31H420.016C418.161 333.31 416.656 334.812 416.656 336.665C416.656 338.517 418.161 340.02 420.016 340.02H443.656C445.512 340.02 447.016 338.517 447.016 336.665C447.016 334.812 445.512 333.31 443.656 333.31Z" fill="white"/>
<path d="M438.043 381.1H425.633C424.015 381.1 422.703 382.411 422.703 384.03V396.44C422.703 398.058 424.015 399.37 425.633 399.37H438.043C439.661 399.37 440.973 398.058 440.973 396.44V384.03C440.973 382.411 439.661 381.1 438.043 381.1Z" class="change-color-in-svg" fill="#4D61FC"/>
<path opacity="0.4" d="M438.043 381.1H425.633C424.015 381.1 422.703 382.411 422.703 384.03V396.44C422.703 398.058 424.015 399.37 425.633 399.37H438.043C439.661 399.37 440.973 398.058 440.973 396.44V384.03C440.973 382.411 439.661 381.1 438.043 381.1Z" fill="white"/>
<path d="M438.043 440.42H425.633C424.015 440.42 422.703 441.732 422.703 443.35V455.76C422.703 457.378 424.015 458.69 425.633 458.69H438.043C439.661 458.69 440.973 457.378 440.973 455.76V443.35C440.973 441.732 439.661 440.42 438.043 440.42Z" class="change-color-in-svg" fill="#4D61FC"/>
<path opacity="0.4" d="M438.043 440.42H425.633C424.015 440.42 422.703 441.732 422.703 443.35V455.76C422.703 457.378 424.015 458.69 425.633 458.69H438.043C439.661 458.69 440.973 457.378 440.973 455.76V443.35C440.973 441.732 439.661 440.42 438.043 440.42Z" fill="white"/>
<path d="M438.043 499.75H425.633C424.015 499.75 422.703 501.062 422.703 502.68V515.09C422.703 516.708 424.015 518.02 425.633 518.02H438.043C439.661 518.02 440.973 516.708 440.973 515.09V502.68C440.973 501.062 439.661 499.75 438.043 499.75Z" class="change-color-in-svg" fill="#4D61FC"/>
<path opacity="0.4" d="M438.043 499.75H425.633C424.015 499.75 422.703 501.062 422.703 502.68V515.09C422.703 516.708 424.015 518.02 425.633 518.02H438.043C439.661 518.02 440.973 516.708 440.973 515.09V502.68C440.973 501.062 439.661 499.75 438.043 499.75Z" fill="white"/>
<path d="M438.043 559.069H425.633C424.015 559.069 422.703 560.381 422.703 561.999V574.409C422.703 576.027 424.015 577.339 425.633 577.339H438.043C439.661 577.339 440.973 576.027 440.973 574.409V561.999C440.973 560.381 439.661 559.069 438.043 559.069Z" class="change-color-in-svg" fill="#4D61FC"/>
<path opacity="0.4" d="M438.043 559.069H425.633C424.015 559.069 422.703 560.381 422.703 561.999V574.409C422.703 576.027 424.015 577.339 425.633 577.339H438.043C439.661 577.339 440.973 576.027 440.973 574.409V561.999C440.973 560.381 439.661 559.069 438.043 559.069Z" fill="white"/>
<path d="M431.573 827.66H425.623C424.583 827.657 423.586 827.242 422.851 826.505C422.116 825.768 421.703 824.77 421.703 823.73V811.32C421.703 810.279 422.116 809.281 422.851 808.544C423.586 807.808 424.583 807.392 425.623 807.39H431.573C431.838 807.39 432.093 807.495 432.28 807.683C432.468 807.87 432.573 808.124 432.573 808.39C432.573 808.655 432.468 808.909 432.28 809.097C432.093 809.284 431.838 809.39 431.573 809.39H425.623C425.113 809.392 424.625 809.597 424.265 809.958C423.905 810.32 423.703 810.81 423.703 811.32V823.73C423.703 824.24 423.905 824.729 424.265 825.091C424.625 825.452 425.113 825.657 425.623 825.66H431.573C431.838 825.66 432.093 825.765 432.28 825.953C432.468 826.14 432.573 826.394 432.573 826.66C432.573 826.925 432.468 827.179 432.28 827.367C432.093 827.554 431.838 827.66 431.573 827.66Z" fill="white"/>
<path d="M437.25 817.649C437.25 817.649 437.25 817.589 437.25 817.549C437.25 817.549 437.25 817.489 437.25 817.459C437.26 817.406 437.26 817.352 437.25 817.299C437.25 817.299 437.25 817.229 437.25 817.189L437.19 817.079C437.19 817.079 437.19 817.019 437.19 816.999L435.19 813.939C435.045 813.718 434.818 813.564 434.56 813.51C434.301 813.455 434.032 813.506 433.81 813.649C433.699 813.721 433.604 813.814 433.529 813.923C433.455 814.032 433.402 814.155 433.375 814.284C433.348 814.413 433.347 814.546 433.372 814.676C433.397 814.806 433.447 814.929 433.52 815.039L434.52 816.549H427.25C426.985 816.549 426.73 816.655 426.543 816.842C426.355 817.03 426.25 817.284 426.25 817.549C426.25 817.814 426.355 818.069 426.543 818.256C426.73 818.444 426.985 818.549 427.25 818.549H434.76L433.76 820.549C433.702 820.667 433.668 820.796 433.66 820.927C433.651 821.059 433.669 821.19 433.712 821.315C433.754 821.439 433.821 821.554 433.909 821.653C433.996 821.751 434.102 821.832 434.22 821.889C434.358 821.952 434.508 821.986 434.66 821.989C434.847 821.99 435.031 821.937 435.19 821.838C435.349 821.739 435.478 821.598 435.56 821.429L437.25 817.989C437.25 817.989 437.25 817.909 437.25 817.869C437.26 817.796 437.26 817.722 437.25 817.649V817.649Z" fill="white"/>
<path d="M1102.79 380.9H957.478C954.91 380.9 952.828 382.982 952.828 385.55V438.1C952.828 440.669 954.91 442.75 957.478 442.75H1102.79C1105.36 442.75 1107.44 440.669 1107.44 438.1V385.55C1107.44 382.982 1105.36 380.9 1102.79 380.9Z" class="change-color-in-svg" fill="#4D61FC"/>
<path opacity="0.85" d="M1102.79 380.9H957.478C954.91 380.9 952.828 382.982 952.828 385.55V438.1C952.828 440.669 954.91 442.75 957.478 442.75H1102.79C1105.36 442.75 1107.44 440.669 1107.44 438.1V385.55C1107.44 382.982 1105.36 380.9 1102.79 380.9Z" fill="white"/>
<path d="M1062.97 431.81C1073.62 431.81 1082.25 423.178 1082.25 412.53C1082.25 401.882 1073.62 393.25 1062.97 393.25C1052.32 393.25 1043.69 401.882 1043.69 412.53C1043.69 423.178 1052.32 431.81 1062.97 431.81Z" fill="white"/>
<path d="M1063 412.53C1061.57 412.529 1060.19 411.996 1059.14 411.034C1058.08 410.073 1057.42 408.752 1057.29 407.33L1056.91 403.21C1056.83 402.416 1056.93 401.615 1057.18 400.859C1057.43 400.103 1057.84 399.408 1058.38 398.819C1058.92 398.229 1059.57 397.759 1060.3 397.437C1061.03 397.115 1061.82 396.95 1062.62 396.95H1063.39C1064.18 396.949 1064.97 397.115 1065.7 397.437C1066.43 397.759 1067.09 398.23 1067.62 398.819C1068.16 399.409 1068.57 400.104 1068.82 400.86C1069.07 401.616 1069.16 402.417 1069.09 403.21L1068.71 407.33C1068.57 408.752 1067.91 410.073 1066.86 411.034C1065.8 411.996 1064.43 412.529 1063 412.53V412.53Z" class="change-color-in-svg" fill="#4D61FC"/>
<path opacity="0.3" d="M1063 412.53C1061.57 412.529 1060.19 411.996 1059.14 411.034C1058.08 410.073 1057.42 408.752 1057.29 407.33L1056.91 403.21C1056.83 402.416 1056.93 401.615 1057.18 400.859C1057.43 400.103 1057.84 399.408 1058.38 398.819C1058.92 398.229 1059.57 397.759 1060.3 397.437C1061.03 397.115 1061.82 396.95 1062.62 396.95H1063.39C1064.18 396.949 1064.97 397.115 1065.7 397.437C1066.43 397.759 1067.09 398.23 1067.62 398.819C1068.16 399.409 1068.57 400.104 1068.82 400.86C1069.07 401.616 1069.16 402.417 1069.09 403.21L1068.71 407.33C1068.57 408.752 1067.91 410.073 1066.86 411.034C1065.8 411.996 1064.43 412.529 1063 412.53V412.53Z" fill="white"/>
<path d="M1079.79 422.52C1079 423.785 1078.06 424.953 1077 426C1074.89 428.112 1072.33 429.72 1069.52 430.707C1066.7 431.693 1063.7 432.032 1060.73 431.697C1057.77 431.363 1054.91 430.364 1052.39 428.775C1049.86 427.186 1047.73 425.048 1046.14 422.52C1046.63 420.328 1047.85 418.368 1049.6 416.963C1051.35 415.558 1053.53 414.791 1055.77 414.79H1070.15C1072.4 414.787 1074.58 415.552 1076.33 416.958C1078.08 418.363 1079.31 420.326 1079.79 422.52V422.52Z" class="change-color-in-svg" fill="#4D61FC"/>
<path opacity="0.3" d="M1079.79 422.52C1079 423.785 1078.06 424.953 1077 426C1074.89 428.112 1072.33 429.72 1069.52 430.707C1066.7 431.693 1063.7 432.032 1060.73 431.697C1057.77 431.363 1054.91 430.364 1052.39 428.775C1049.86 427.186 1047.73 425.048 1046.14 422.52C1046.63 420.328 1047.85 418.368 1049.6 416.963C1051.35 415.558 1053.53 414.791 1055.77 414.79H1070.15C1072.4 414.787 1074.58 415.552 1076.33 416.958C1078.08 418.363 1079.31 420.326 1079.79 422.52V422.52Z" fill="white"/>
<path d="M1004.39 412.33H969.501C968.788 412.33 968.211 412.908 968.211 413.62V415.64C968.211 416.353 968.788 416.93 969.501 416.93H1004.39C1005.1 416.93 1005.68 416.353 1005.68 415.64V413.62C1005.68 412.908 1005.1 412.33 1004.39 412.33Z" fill="#858990"/>
<path d="M1012.86 399.641H972.061C969.935 399.641 968.211 401.364 968.211 403.491C968.211 405.617 969.935 407.341 972.061 407.341H1012.86C1014.99 407.341 1016.71 405.617 1016.71 403.491C1016.71 401.364 1014.99 399.641 1012.86 399.641Z" fill="#61656D"/>
<path d="M1009.81 342.78H933.36C926.948 342.78 921.75 347.978 921.75 354.39V354.4C921.75 360.812 926.948 366.01 933.36 366.01H1009.81C1016.22 366.01 1021.42 360.812 1021.42 354.4V354.39C1021.42 347.978 1016.22 342.78 1009.81 342.78Z" fill="#D8DBDD"/>
<path d="M1009.51 357.87L1007.58 355.95C1008.08 355.249 1008.33 354.4 1008.29 353.54C1008.24 352.68 1007.92 351.859 1007.35 351.208C1006.79 350.557 1006.02 350.114 1005.18 349.95C1004.33 349.786 1003.46 349.911 1002.69 350.305C1001.93 350.699 1001.32 351.339 1000.96 352.121C1000.6 352.904 1000.51 353.785 1000.72 354.622C1000.92 355.458 1001.4 356.203 1002.07 356.736C1002.75 357.269 1003.58 357.559 1004.45 357.56C1005.25 357.558 1006.04 357.306 1006.7 356.84L1008.62 358.76C1008.67 358.817 1008.74 358.863 1008.82 358.894C1008.89 358.925 1008.97 358.94 1009.06 358.94C1009.22 358.939 1009.38 358.875 1009.51 358.76C1009.62 358.641 1009.69 358.481 1009.69 358.315C1009.69 358.149 1009.62 357.989 1009.51 357.87V357.87ZM1002.62 355.54C1002.26 355.176 1002.01 354.715 1001.91 354.212C1001.81 353.71 1001.86 353.19 1002.06 352.717C1002.25 352.244 1002.59 351.839 1003.01 351.553C1003.43 351.268 1003.93 351.113 1004.45 351.11C1004.87 351.107 1005.3 351.21 1005.68 351.411C1006.06 351.611 1006.38 351.902 1006.62 352.257C1006.86 352.613 1007.01 353.022 1007.05 353.449C1007.09 353.876 1007.03 354.306 1006.87 354.703C1006.7 355.099 1006.44 355.448 1006.11 355.72C1005.78 355.992 1005.39 356.178 1004.96 356.261C1004.54 356.344 1004.11 356.321 1003.7 356.195C1003.29 356.07 1002.92 355.844 1002.62 355.54V355.54Z" fill="#858990"/>
<path d="M1061.98 342.78H1044.07C1042.6 342.78 1041.41 343.971 1041.41 345.44V363.35C1041.41 364.819 1042.6 366.01 1044.07 366.01H1061.98C1063.45 366.01 1064.64 364.819 1064.64 363.35V345.44C1064.64 343.971 1063.45 342.78 1061.98 342.78Z" fill="#D8DBDD"/>
<path d="M1105.22 342.78H1087.31C1085.84 342.78 1084.65 343.971 1084.65 345.44V363.35C1084.65 364.819 1085.84 366.01 1087.31 366.01H1105.22C1106.69 366.01 1107.88 364.819 1107.88 363.35V345.44C1107.88 343.971 1106.69 342.78 1105.22 342.78Z" fill="#D8DBDD"/>
<path d="M559.997 348.58H491.258C488.043 348.58 485.438 351.186 485.438 354.4C485.438 357.614 488.043 360.22 491.258 360.22H559.997C563.212 360.22 565.818 357.614 565.818 354.4C565.818 351.186 563.212 348.58 559.997 348.58Z" fill="#868A91"/>
<path d="M670.478 472.4H490.158C487.59 472.4 485.508 474.482 485.508 477.05V570.09C485.508 572.659 487.59 574.74 490.158 574.74H670.478C673.046 574.74 675.128 572.659 675.128 570.09V477.05C675.128 474.482 673.046 472.4 670.478 472.4Z" class="change-color-in-svg" fill="#4D61FC"/>
<path d="M670.478 472.4H490.158C487.59 472.4 485.508 474.482 485.508 477.05V570.09C485.508 572.659 487.59 574.74 490.158 574.74H670.478C673.046 574.74 675.128 572.659 675.128 570.09V477.05C675.128 474.482 673.046 472.4 670.478 472.4Z" class="change-color-in-svg" fill="#4D61FC"/>
<path d="M646.767 503.13C652.925 503.13 657.917 498.138 657.917 491.98C657.917 485.822 652.925 480.83 646.767 480.83C640.609 480.83 635.617 485.822 635.617 491.98C635.617 498.138 640.609 503.13 646.767 503.13Z" fill="white"/>
<path d="M632.377 503.13C638.535 503.13 643.527 498.138 643.527 491.98C643.527 485.822 638.535 480.83 632.377 480.83C626.219 480.83 621.227 485.822 621.227 491.98C621.227 498.138 626.219 503.13 632.377 503.13Z" class="change-color-in-svg" fill="#4D61FC"/>
<path opacity="0.3" d="M632.377 503.13C638.535 503.13 643.527 498.138 643.527 491.98C643.527 485.822 638.535 480.83 632.377 480.83C626.219 480.83 621.227 485.822 621.227 491.98C621.227 498.138 626.219 503.13 632.377 503.13Z" fill="white"/>
<path d="M530.898 511.131H509.558C505.979 511.131 503.078 514.032 503.078 517.611V529.761C503.078 533.34 505.979 536.241 509.558 536.241H530.898C534.477 536.241 537.378 533.34 537.378 529.761V517.611C537.378 514.032 534.477 511.131 530.898 511.131Z" fill="white"/>
<path d="M551.898 489.24H505.818C504.305 489.24 503.078 490.467 503.078 491.98C503.078 493.494 504.305 494.72 505.818 494.72H551.898C553.411 494.72 554.638 493.494 554.638 491.98C554.638 490.467 553.411 489.24 551.898 489.24Z" class="change-color-in-svg" fill="#4D61FC"/>
<path d="M525.938 548.69H508.978C505.72 548.69 503.078 551.33 503.078 554.585C503.078 557.841 505.72 560.48 508.978 560.48H525.938C529.197 560.48 531.838 557.841 531.838 554.585C531.838 551.33 529.197 548.69 525.938 548.69Z" class="change-color-in-svg" fill="#4D61FC"/>
<path d="M562.626 548.69H545.666C542.407 548.69 539.766 551.33 539.766 554.585C539.766 557.841 542.407 560.48 545.666 560.48H562.626C565.884 560.48 568.526 557.841 568.526 554.585C568.526 551.33 565.884 548.69 562.626 548.69Z" class="change-color-in-svg" fill="#4D61FC"/>
<path d="M599.321 548.69H582.361C579.102 548.69 576.461 551.33 576.461 554.585C576.461 557.841 579.102 560.48 582.361 560.48H599.321C602.579 560.48 605.221 557.841 605.221 554.585C605.221 551.33 602.579 548.69 599.321 548.69Z" class="change-color-in-svg" fill="#4D61FC"/>
<path d="M636.008 548.69H619.048C615.79 548.69 613.148 551.33 613.148 554.585C613.148 557.841 615.79 560.48 619.048 560.48H636.008C639.267 560.48 641.908 557.841 641.908 554.585C641.908 551.33 639.267 548.69 636.008 548.69Z" class="change-color-in-svg" fill="#4D61FC"/>
<path opacity="0.3" d="M551.898 489.24H505.818C504.305 489.24 503.078 490.467 503.078 491.98C503.078 493.494 504.305 494.72 505.818 494.72H551.898C553.411 494.72 554.638 493.494 554.638 491.98C554.638 490.467 553.411 489.24 551.898 489.24Z" fill="white"/>
<path opacity="0.3" d="M525.938 548.69H508.978C505.72 548.69 503.078 551.33 503.078 554.585C503.078 557.841 505.72 560.48 508.978 560.48H525.938C529.197 560.48 531.838 557.841 531.838 554.585C531.838 551.33 529.197 548.69 525.938 548.69Z" fill="white"/>
<path opacity="0.3" d="M562.626 548.69H545.666C542.407 548.69 539.766 551.33 539.766 554.585C539.766 557.841 542.407 560.48 545.666 560.48H562.626C565.884 560.48 568.526 557.841 568.526 554.585C568.526 551.33 565.884 548.69 562.626 548.69Z" fill="white"/>
<path opacity="0.3" d="M599.321 548.69H582.361C579.102 548.69 576.461 551.33 576.461 554.585C576.461 557.841 579.102 560.48 582.361 560.48H599.321C602.579 560.48 605.221 557.841 605.221 554.585C605.221 551.33 602.579 548.69 599.321 548.69Z" fill="white"/>
<path opacity="0.3" d="M636.008 548.69H619.048C615.79 548.69 613.148 551.33 613.148 554.585C613.148 557.841 615.79 560.48 619.048 560.48H636.008C639.267 560.48 641.908 557.841 641.908 554.585C641.908 551.33 639.267 548.69 636.008 548.69Z" fill="white"/>
<path d="M670.478 598.94H490.158C487.59 598.94 485.508 601.022 485.508 603.59V696.63C485.508 699.199 487.59 701.28 490.158 701.28H670.478C673.046 701.28 675.128 699.199 675.128 696.63V603.59C675.128 601.022 673.046 598.94 670.478 598.94Z" fill="#D8DBDD"/>
<path d="M653.486 611.07H630.156C627.77 611.07 625.836 613.004 625.836 615.39V621.65C625.836 624.036 627.77 625.97 630.156 625.97H653.486C655.872 625.97 657.806 624.036 657.806 621.65V615.39C657.806 613.004 655.872 611.07 653.486 611.07Z" fill="#B1B5BA"/>
<path d="M530.898 637.67H509.558C505.979 637.67 503.078 640.571 503.078 644.15V656.3C503.078 659.879 505.979 662.78 509.558 662.78H530.898C534.477 662.78 537.378 659.879 537.378 656.3V644.15C537.378 640.571 534.477 637.67 530.898 637.67Z" fill="white"/>
<path d="M551.898 615.78H505.818C504.305 615.78 503.078 617.007 503.078 618.52C503.078 620.034 504.305 621.26 505.818 621.26H551.898C553.411 621.26 554.638 620.034 554.638 618.52C554.638 617.007 553.411 615.78 551.898 615.78Z" fill="#B1B5BA"/>
<path d="M525.938 675.24H508.978C505.72 675.24 503.078 677.88 503.078 681.135C503.078 684.391 505.72 687.03 508.978 687.03H525.938C529.197 687.03 531.838 684.391 531.838 681.135C531.838 677.88 529.197 675.24 525.938 675.24Z" fill="#B1B5BA"/>
<path d="M562.626 675.24H545.666C542.407 675.24 539.766 677.88 539.766 681.135C539.766 684.391 542.407 687.03 545.666 687.03H562.626C565.884 687.03 568.526 684.391 568.526 681.135C568.526 677.88 565.884 675.24 562.626 675.24Z" fill="#B1B5BA"/>
<path d="M599.321 675.24H582.361C579.102 675.24 576.461 677.88 576.461 681.135C576.461 684.391 579.102 687.03 582.361 687.03H599.321C602.579 687.03 605.221 684.391 605.221 681.135C605.221 677.88 602.579 675.24 599.321 675.24Z" fill="#B1B5BA"/>
<path d="M636.008 675.24H619.048C615.79 675.24 613.148 677.88 613.148 681.135C613.148 684.391 615.79 687.03 619.048 687.03H636.008C639.267 687.03 641.908 684.391 641.908 681.135C641.908 677.88 639.267 675.24 636.008 675.24Z" fill="#B1B5BA"/>
<path d="M670.478 724.32H490.158C487.59 724.32 485.508 726.402 485.508 728.97V822.01C485.508 824.578 487.59 826.66 490.158 826.66H670.478C673.046 826.66 675.128 824.578 675.128 822.01V728.97C675.128 726.402 673.046 724.32 670.478 724.32Z" fill="#B2B6BB"/>
<path d="M653.486 736.45H630.156C627.77 736.45 625.836 738.384 625.836 740.77V747.03C625.836 749.416 627.77 751.35 630.156 751.35H653.486C655.872 751.35 657.806 749.416 657.806 747.03V740.77C657.806 738.384 655.872 736.45 653.486 736.45Z" fill="#868A91"/>
<path d="M530.898 763.051H509.558C505.979 763.051 503.078 765.952 503.078 769.531V781.681C503.078 785.26 505.979 788.161 509.558 788.161H530.898C534.477 788.161 537.378 785.26 537.378 781.681V769.531C537.378 765.952 534.477 763.051 530.898 763.051Z" fill="white"/>
<path d="M551.898 741.16H505.818C504.305 741.16 503.078 742.387 503.078 743.9C503.078 745.413 504.305 746.64 505.818 746.64H551.898C553.411 746.64 554.638 745.413 554.638 743.9C554.638 742.387 553.411 741.16 551.898 741.16Z" fill="#868A91"/>
<path d="M525.938 800.62H508.978C505.72 800.62 503.078 803.259 503.078 806.515C503.078 809.771 505.72 812.41 508.978 812.41H525.938C529.197 812.41 531.838 809.771 531.838 806.515C531.838 803.259 529.197 800.62 525.938 800.62Z" fill="#868A91"/>
<path d="M562.626 800.62H545.666C542.407 800.62 539.766 803.259 539.766 806.515C539.766 809.771 542.407 812.41 545.666 812.41H562.626C565.884 812.41 568.526 809.771 568.526 806.515C568.526 803.259 565.884 800.62 562.626 800.62Z" fill="#868A91"/>
<path d="M599.321 800.62H582.361C579.102 800.62 576.461 803.259 576.461 806.515C576.461 809.771 579.102 812.41 582.361 812.41H599.321C602.579 812.41 605.221 809.771 605.221 806.515C605.221 803.259 602.579 800.62 599.321 800.62Z" fill="#868A91"/>
<path d="M636.008 800.62H619.048C615.79 800.62 613.148 803.259 613.148 806.515C613.148 809.771 615.79 812.41 619.048 812.41H636.008C639.267 812.41 641.908 809.771 641.908 806.515C641.908 803.259 639.267 800.62 636.008 800.62Z" fill="#868A91"/>
<path d="M1103.62 472.69H957.478C954.91 472.69 952.828 474.772 952.828 477.34V615.03C952.828 617.599 954.91 619.68 957.478 619.68H1103.62C1106.19 619.68 1108.27 617.599 1108.27 615.03V477.34C1108.27 474.772 1106.19 472.69 1103.62 472.69Z" class="change-color-in-svg" fill="#4D61FC"/>
<path opacity="0.85" d="M1103.62 472.69H957.478C954.91 472.69 952.828 474.772 952.828 477.34V615.03C952.828 617.599 954.91 619.68 957.478 619.68H1103.62C1106.19 619.68 1108.27 617.599 1108.27 615.03V477.34C1108.27 474.772 1106.19 472.69 1103.62 472.69Z" fill="white"/>
<g opacity="0.2">
<path opacity="0.2" d="M1101.08 544.95H960.906V545.45H1101.08V544.95Z" class="change-color-in-svg" fill="#4D61FC"/>
</g>
<g opacity="0.2">
<path opacity="0.2" d="M1101.3 565.91H961.102V566.41H1101.3V565.91Z" class="change-color-in-svg" fill="#4D61FC"/>
</g>
<g opacity="0.2">
<path opacity="0.2" d="M1101.53 586.87H960.906V587.37H1101.53V586.87Z" class="change-color-in-svg" fill="#4D61FC"/>
</g>
<path d="M1097.34 486.24H1067.84C1066.72 486.24 1065.82 487.145 1065.82 488.26V491.5C1065.82 492.616 1066.72 493.52 1067.84 493.52H1097.34C1098.46 493.52 1099.36 492.616 1099.36 491.5V488.26C1099.36 487.145 1098.46 486.24 1097.34 486.24Z" fill="#858990"/>
<path d="M982.292 604.19H969.372C968.946 604.19 968.602 604.535 968.602 604.96V606.03C968.602 606.456 968.946 606.8 969.372 606.8H982.292C982.717 606.8 983.062 606.456 983.062 606.03V604.96C983.062 604.535 982.717 604.19 982.292 604.19Z" fill="#858990"/>
<path d="M1000.16 604.19H988.318C987.594 604.19 987.008 604.775 987.008 605.495C987.008 606.216 987.594 606.8 988.318 606.8H1000.16C1000.88 606.8 1001.47 606.216 1001.47 605.495C1001.47 604.775 1000.88 604.19 1000.16 604.19Z" class="change-color-in-svg" fill="#4D61FC"/>
<path d="M1048.41 604.19H1035.49C1035.06 604.19 1034.72 604.535 1034.72 604.96V606.03C1034.72 606.456 1035.06 606.8 1035.49 606.8H1048.41C1048.83 606.8 1049.18 606.456 1049.18 606.03V604.96C1049.18 604.535 1048.83 604.19 1048.41 604.19Z" fill="#858990"/>
<path d="M1066.28 604.19H1054.43C1053.71 604.19 1053.12 604.775 1053.12 605.495C1053.12 606.216 1053.71 606.8 1054.43 606.8H1066.28C1067 606.8 1067.58 606.216 1067.58 605.495C1067.58 604.775 1067 604.19 1066.28 604.19Z" class="change-color-in-svg" fill="#4D61FC"/>
<path opacity="0.37" d="M1101.53 587.37H960.906L961.136 561.06C962.576 557.35 964.696 553.4 967.676 553.4C971.206 553.4 972.906 563.33 980.736 563.3C992.956 563.3 996.736 544.46 1002.44 543.96C1011.05 543.2 1014.82 559.36 1023.05 559.5C1030.49 559.62 1033.23 552.31 1036.99 547.96C1038.4 546.341 1040.28 545.204 1042.37 544.71C1045.11 544.06 1045.68 544.96 1049.5 543.65C1061.24 539.65 1058.5 524.31 1069.04 525.65C1077.15 526.7 1077.13 546.77 1085.5 548.2C1089.9 548.95 1097.5 544.52 1101.06 544.43L1101.53 587.37Z" class="change-color-in-svg" fill="#4D61FC"/>
<path d="M980.72 564.22C975.72 564.22 973.18 560.51 971.1 557.53C969.87 555.75 968.81 554.22 967.68 554.22C965.56 554.22 963.54 556.7 961.68 561.6L960.68 561.21C962.76 555.76 965.07 553.11 967.68 553.11C969.38 553.11 970.6 554.87 972.01 556.9C973.94 559.67 976.33 563.12 980.72 563.12C987.72 563.12 991.99 556.33 995.39 550.9C997.77 547.1 999.82 543.81 1002.39 543.59C1007.14 543.16 1010.39 547.5 1013.61 551.68C1016.56 555.55 1019.34 559.21 1023.06 559.27C1028.46 559.4 1031.24 555.27 1033.95 551.36C1034.83 550.09 1035.66 548.89 1036.57 547.82C1038.05 546.102 1040.03 544.891 1042.24 544.36C1043.15 544.142 1044.09 544.041 1045.03 544.06C1046.5 544.093 1047.95 543.835 1049.32 543.3C1054.76 541.43 1057.01 536.91 1059 532.93C1061.19 528.53 1063.27 524.37 1069.11 525.14C1073.48 525.71 1075.61 531.28 1077.67 536.67C1079.67 541.86 1081.67 547.23 1085.59 547.9C1088.02 548.32 1091.67 546.99 1094.89 545.81C1096.85 544.962 1098.92 544.383 1101.04 544.09V545.19C1099.04 545.493 1097.09 546.051 1095.24 546.85C1091.89 548.07 1088.1 549.45 1085.37 548.99C1080.86 548.21 1078.7 542.54 1076.6 537.06C1074.6 531.74 1072.6 526.72 1068.94 526.23C1063.87 525.56 1062.14 529.03 1059.94 533.42C1057.86 537.6 1055.5 542.33 1049.63 544.35C1048.15 544.92 1046.57 545.199 1044.98 545.17C1044.13 545.148 1043.28 545.235 1042.45 545.43C1040.47 545.907 1038.69 546.995 1037.36 548.54C1036.45 549.647 1035.6 550.798 1034.81 551.99C1032.07 555.99 1028.91 560.48 1022.99 560.38C1018.74 560.31 1015.66 556.26 1012.68 552.38C1009.54 548.25 1006.57 544.38 1002.44 544.72C1000.44 544.9 998.52 547.97 996.29 551.52C992.75 557.18 988.29 564.23 980.7 564.25L980.72 564.22Z" class="change-color-in-svg" fill="#4D61FC"/>
<path d="M1031.05 558.471C1032.37 558.471 1033.43 557.405 1033.43 556.091C1033.43 554.777 1032.37 553.711 1031.05 553.711C1029.74 553.711 1028.67 554.777 1028.67 556.091C1028.67 557.405 1029.74 558.471 1031.05 558.471Z" fill="white" stroke="#61656D" stroke-miterlimit="10"/>
<path d="M1044.87 531.48H1016.6C1016.13 531.48 1015.68 531.668 1015.34 532.002C1015.01 532.336 1014.82 532.788 1014.82 533.26V547C1014.82 547.472 1015.01 547.925 1015.34 548.259C1015.68 548.593 1016.13 548.78 1016.6 548.78H1029.29L1030.29 550.44C1030.34 550.533 1030.41 550.611 1030.5 550.665C1030.59 550.719 1030.69 550.748 1030.79 550.748C1030.89 550.748 1031 550.719 1031.08 550.665C1031.17 550.611 1031.24 550.533 1031.29 550.44L1032.29 548.78H1044.98C1045.45 548.778 1045.9 548.589 1046.23 548.255C1046.56 547.922 1046.75 547.471 1046.75 547V533.26C1046.75 533.018 1046.7 532.778 1046.61 532.555C1046.51 532.333 1046.37 532.132 1046.19 531.965C1046.02 531.798 1045.81 531.669 1045.58 531.586C1045.35 531.503 1045.11 531.467 1044.87 531.48V531.48Z" fill="#61656D"/>
<path d="M1039.97 534.811H1021.5C1021.18 534.811 1020.93 535.066 1020.93 535.381V538.341C1020.93 538.655 1021.18 538.911 1021.5 538.911H1039.97C1040.28 538.911 1040.54 538.655 1040.54 538.341V535.381C1040.54 535.066 1040.28 534.811 1039.97 534.811Z" class="change-color-in-svg" fill="#4D61FC"/>
<path d="M1035.1 542.271H1026.36C1026.04 542.271 1025.79 542.526 1025.79 542.841V544.091C1025.79 544.405 1026.04 544.66 1026.36 544.66H1035.1C1035.41 544.66 1035.67 544.405 1035.67 544.091V542.841C1035.67 542.526 1035.41 542.271 1035.1 542.271Z" class="change-color-in-svg" fill="#4D61FC"/>
<path opacity="0.5" d="M1039.97 534.811H1021.5C1021.18 534.811 1020.93 535.066 1020.93 535.381V538.341C1020.93 538.655 1021.18 538.911 1021.5 538.911H1039.97C1040.28 538.911 1040.54 538.655 1040.54 538.341V535.381C1040.54 535.066 1040.28 534.811 1039.97 534.811Z" fill="white"/>
<path opacity="0.5" d="M1035.1 542.271H1026.36C1026.04 542.271 1025.79 542.526 1025.79 542.841V544.091C1025.79 544.405 1026.04 544.66 1026.36 544.66H1035.1C1035.41 544.66 1035.67 544.405 1035.67 544.091V542.841C1035.67 542.526 1035.41 542.271 1035.1 542.271Z" fill="white"/>
<g opacity="0.2">
<path opacity="0.2" d="M1101.19 523.99H960.906V524.49H1101.19V523.99Z" class="change-color-in-svg" fill="#4D61FC"/>
</g>
<path d="M1104.58 642.69H957.58C955.012 642.69 952.93 644.772 952.93 647.34V821.1C952.93 823.669 955.012 825.75 957.58 825.75H1104.58C1107.15 825.75 1109.23 823.669 1109.23 821.1V647.34C1109.23 644.772 1107.15 642.69 1104.58 642.69Z" class="change-color-in-svg" fill="#4D61FC"/>
<path opacity="0.85" d="M1104.58 642.69H957.58C955.012 642.69 952.93 644.772 952.93 647.34V821.1C952.93 823.669 955.012 825.75 957.58 825.75H1104.58C1107.15 825.75 1109.23 823.669 1109.23 821.1V647.34C1109.23 644.772 1107.15 642.69 1104.58 642.69Z" fill="white"/>
<path d="M1028.12 654.73H965.622C964.506 654.73 963.602 655.635 963.602 656.75V663.73C963.602 664.846 964.506 665.75 965.622 665.75H1028.12C1029.24 665.75 1030.14 664.846 1030.14 663.73V656.75C1030.14 655.635 1029.24 654.73 1028.12 654.73Z" fill="#858990"/>
<path d="M992.342 685.86H964.972C964.215 685.86 963.602 686.474 963.602 687.23V689.18C963.602 689.937 964.215 690.55 964.972 690.55H992.342C993.098 690.55 993.712 689.937 993.712 689.18V687.23C993.712 686.474 993.098 685.86 992.342 685.86Z" class="change-color-in-svg" fill="#4D61FC"/>
<path d="M1086.67 695.45H965.642C964.515 695.45 963.602 696.361 963.602 697.485C963.602 698.609 964.515 699.52 965.642 699.52H1086.67C1087.8 699.52 1088.71 698.609 1088.71 697.485C1088.71 696.361 1087.8 695.45 1086.67 695.45Z" class="change-color-in-svg" fill="#4D61FC"/>
<path opacity="0.5" d="M1086.67 695.45H965.642C964.515 695.45 963.602 696.361 963.602 697.485C963.602 698.609 964.515 699.52 965.642 699.52H1086.67C1087.8 699.52 1088.71 698.609 1088.71 697.485C1088.71 696.361 1087.8 695.45 1086.67 695.45Z" fill="white"/>
<path d="M1004.92 695.45H965.642C964.515 695.45 963.602 696.361 963.602 697.485C963.602 698.609 964.515 699.52 965.642 699.52H1004.92C1006.05 699.52 1006.96 698.609 1006.96 697.485C1006.96 696.361 1006.05 695.45 1004.92 695.45Z" fill="#61656D"/>
<path d="M992.342 727.78H964.972C964.215 727.78 963.602 728.394 963.602 729.15V731.1C963.602 731.857 964.215 732.47 964.972 732.47H992.342C993.098 732.47 993.712 731.857 993.712 731.1V729.15C993.712 728.394 993.098 727.78 992.342 727.78Z" class="change-color-in-svg" fill="#4D61FC"/>
<path d="M1086.67 737.36H965.642C964.515 737.36 963.602 738.271 963.602 739.395C963.602 740.519 964.515 741.43 965.642 741.43H1086.67C1087.8 741.43 1088.71 740.519 1088.71 739.395C1088.71 738.271 1087.8 737.36 1086.67 737.36Z" class="change-color-in-svg" fill="#4D61FC"/>
<path opacity="0.5" d="M1086.67 737.36H965.642C964.515 737.36 963.602 738.271 963.602 739.395C963.602 740.519 964.515 741.43 965.642 741.43H1086.67C1087.8 741.43 1088.71 740.519 1088.71 739.395C1088.71 738.271 1087.8 737.36 1086.67 737.36Z" fill="white"/>
<path d="M1045.9 737.36H965.642C964.515 737.36 963.602 738.271 963.602 739.395C963.602 740.519 964.515 741.43 965.642 741.43H1045.9C1047.03 741.43 1047.94 740.519 1047.94 739.395C1047.94 738.271 1047.03 737.36 1045.9 737.36Z" fill="#61656D"/>
<path d="M992.342 769.69H964.972C964.215 769.69 963.602 770.304 963.602 771.06V773.01C963.602 773.767 964.215 774.38 964.972 774.38H992.342C993.098 774.38 993.712 773.767 993.712 773.01V771.06C993.712 770.304 993.098 769.69 992.342 769.69Z" class="change-color-in-svg" fill="#4D61FC"/>
<path d="M1086.67 779.271H965.642C964.515 779.271 963.602 780.182 963.602 781.305C963.602 782.429 964.515 783.341 965.642 783.341H1086.67C1087.8 783.341 1088.71 782.429 1088.71 781.305C1088.71 780.182 1087.8 779.271 1086.67 779.271Z" class="change-color-in-svg" fill="#4D61FC"/>
<path opacity="0.5" d="M1086.67 779.271H965.642C964.515 779.271 963.602 780.182 963.602 781.305C963.602 782.429 964.515 783.341 965.642 783.341H1086.67C1087.8 783.341 1088.71 782.429 1088.71 781.305C1088.71 780.182 1087.8 779.271 1086.67 779.271Z" fill="white"/>
<path d="M1022.78 779.271H965.642C964.515 779.271 963.602 780.182 963.602 781.305C963.602 782.429 964.515 783.341 965.642 783.341H1022.78C1023.91 783.341 1024.82 782.429 1024.82 781.305C1024.82 780.182 1023.91 779.271 1022.78 779.271Z" fill="#61656D"/>
<path d="M924.49 381.01H493.63C489.278 381.01 485.75 384.538 485.75 388.89V434.87C485.75 439.222 489.278 442.75 493.63 442.75H924.49C928.842 442.75 932.37 439.222 932.37 434.87V388.89C932.37 384.538 928.842 381.01 924.49 381.01Z" class="change-color-in-svg" fill="#4D61FC"/>
<path opacity="0.85" d="M924.49 381.01H493.63C489.278 381.01 485.75 384.538 485.75 388.89V434.87C485.75 439.222 489.278 442.75 493.63 442.75H924.49C928.842 442.75 932.37 439.222 932.37 434.87V388.89C932.37 384.538 928.842 381.01 924.49 381.01Z" fill="white"/>
<path d="M513.822 416.2C520.156 416.2 525.292 411.064 525.292 404.73C525.292 398.395 520.156 393.26 513.822 393.26C507.487 393.26 502.352 398.395 502.352 404.73C502.352 411.064 507.487 416.2 513.822 416.2Z" fill="#858990"/>
<path d="M521.341 425.08H506.291C504.905 425.08 503.781 426.204 503.781 427.59C503.781 428.976 504.905 430.1 506.291 430.1H521.341C522.728 430.1 523.851 428.976 523.851 427.59C523.851 426.204 522.728 425.08 521.341 425.08Z" class="change-color-in-svg" fill="#4D61FC"/>
<path d="M578.751 416.2C585.086 416.2 590.221 411.064 590.221 404.73C590.221 398.395 585.086 393.26 578.751 393.26C572.417 393.26 567.281 398.395 567.281 404.73C567.281 411.064 572.417 416.2 578.751 416.2Z" fill="#858990"/>
<path d="M586.279 425.08H571.229C569.843 425.08 568.719 426.204 568.719 427.59C568.719 428.976 569.843 430.1 571.229 430.1H586.279C587.665 430.1 588.789 428.976 588.789 427.59C588.789 426.204 587.665 425.08 586.279 425.08Z" class="change-color-in-svg" fill="#4D61FC"/>
<path d="M643.689 416.2C650.023 416.2 655.159 411.064 655.159 404.73C655.159 398.395 650.023 393.26 643.689 393.26C637.354 393.26 632.219 398.395 632.219 404.73C632.219 411.064 637.354 416.2 643.689 416.2Z" fill="#858990"/>
<path d="M651.208 425.08H636.158C634.772 425.08 633.648 426.204 633.648 427.59C633.648 428.976 634.772 430.1 636.158 430.1H651.208C652.595 430.1 653.718 428.976 653.718 427.59C653.718 426.204 652.595 425.08 651.208 425.08Z" class="change-color-in-svg" fill="#4D61FC"/>
<path d="M708.618 416.2C714.953 416.2 720.088 411.064 720.088 404.73C720.088 398.395 714.953 393.26 708.618 393.26C702.284 393.26 697.148 398.395 697.148 404.73C697.148 411.064 702.284 416.2 708.618 416.2Z" fill="#858990"/>
<path d="M716.154 425.08H701.104C699.717 425.08 698.594 426.204 698.594 427.59C698.594 428.976 699.717 430.1 701.104 430.1H716.154C717.54 430.1 718.664 428.976 718.664 427.59C718.664 426.204 717.54 425.08 716.154 425.08Z" class="change-color-in-svg" fill="#4D61FC"/>
<path d="M773.548 416.2C779.883 416.2 785.018 411.064 785.018 404.73C785.018 398.395 779.883 393.26 773.548 393.26C767.213 393.26 762.078 398.395 762.078 404.73C762.078 411.064 767.213 416.2 773.548 416.2Z" fill="#858990"/>
<path d="M781.083 425.08H766.033C764.647 425.08 763.523 426.204 763.523 427.59C763.523 428.976 764.647 430.1 766.033 430.1H781.083C782.47 430.1 783.593 428.976 783.593 427.59C783.593 426.204 782.47 425.08 781.083 425.08Z" class="change-color-in-svg" fill="#4D61FC"/>
<path d="M838.493 416.2C844.828 416.2 849.963 411.064 849.963 404.73C849.963 398.395 844.828 393.26 838.493 393.26C832.159 393.26 827.023 398.395 827.023 404.73C827.023 411.064 832.159 416.2 838.493 416.2Z" fill="#858990"/>
<path d="M846.021 425.08H830.971C829.585 425.08 828.461 426.204 828.461 427.59C828.461 428.976 829.585 430.1 830.971 430.1H846.021C847.407 430.1 848.531 428.976 848.531 427.59C848.531 426.204 847.407 425.08 846.021 425.08Z" class="change-color-in-svg" fill="#4D61FC"/>
<path d="M903.423 416.2C909.758 416.2 914.893 411.064 914.893 404.73C914.893 398.395 909.758 393.26 903.423 393.26C897.088 393.26 891.953 398.395 891.953 404.73C891.953 411.064 897.088 416.2 903.423 416.2Z" fill="#858990"/>
<path d="M910.951 425.08H895.901C894.514 425.08 893.391 426.204 893.391 427.59C893.391 428.976 894.514 430.1 895.901 430.1H910.951C912.337 430.1 913.461 428.976 913.461 427.59C913.461 426.204 912.337 425.08 910.951 425.08Z" class="change-color-in-svg" fill="#4D61FC"/>
<path d="M927.385 472.32L696.416 472.723C693.847 472.728 691.769 474.813 691.774 477.381L692.374 821.411C692.379 823.979 694.464 826.057 697.032 826.053L928.002 825.65C930.57 825.645 932.648 823.56 932.644 820.992L932.043 476.962C932.039 474.394 929.953 472.316 927.385 472.32Z" class="change-color-in-svg" fill="#4D61FC"/>
<path opacity="0.85" d="M927.385 472.32L696.416 472.723C693.847 472.728 691.769 474.813 691.774 477.381L692.374 821.411C692.379 823.979 694.464 826.057 697.032 826.053L928.002 825.65C930.57 825.645 932.648 823.56 932.644 820.992L932.043 476.962C932.039 474.394 929.953 472.316 927.385 472.32Z" fill="white"/>
<path d="M940.764 510.641H683.474C681.469 510.641 679.844 512.266 679.844 514.271V552.131C679.844 554.135 681.469 555.761 683.474 555.761H940.764C942.769 555.761 944.394 554.135 944.394 552.131V514.271C944.394 512.266 942.769 510.641 940.764 510.641Z" class="change-color-in-svg" fill="#4D61FC"/>
<path opacity="0.5" d="M940.764 510.641H683.474C681.469 510.641 679.844 512.266 679.844 514.271V552.131C679.844 554.135 681.469 555.761 683.474 555.761H940.764C942.769 555.761 944.394 554.135 944.394 552.131V514.271C944.394 512.266 942.769 510.641 940.764 510.641Z" fill="white" stroke="white" stroke-width="2" stroke-miterlimit="10"/>
<path d="M903.481 525.541H870.701C869.011 525.541 867.641 526.911 867.641 528.601V529.221C867.641 530.911 869.011 532.281 870.701 532.281H903.481C905.171 532.281 906.541 530.911 906.541 529.221V528.601C906.541 526.911 905.171 525.541 903.481 525.541Z" fill="#858990"/>
<path d="M894.894 567.641H865.654C863.964 567.641 862.594 569.011 862.594 570.701V570.711C862.594 572.401 863.964 573.771 865.654 573.771H894.894C896.584 573.771 897.954 572.401 897.954 570.711V570.701C897.954 569.011 896.584 567.641 894.894 567.641Z" fill="#858990"/>
<path d="M894.894 609.53H865.654C863.964 609.53 862.594 610.9 862.594 612.59V612.6C862.594 614.29 863.964 615.66 865.654 615.66H894.894C896.584 615.66 897.954 614.29 897.954 612.6V612.59C897.954 610.9 896.584 609.53 894.894 609.53Z" fill="#858990"/>
<path d="M894.894 651.431H865.654C863.964 651.431 862.594 652.801 862.594 654.491V654.501C862.594 656.191 863.964 657.561 865.654 657.561H894.894C896.584 657.561 897.954 656.191 897.954 654.501V654.491C897.954 652.801 896.584 651.431 894.894 651.431Z" fill="#858990"/>
<path d="M894.894 692.32H865.654C863.964 692.32 862.594 693.69 862.594 695.38V695.39C862.594 697.08 863.964 698.45 865.654 698.45H894.894C896.584 698.45 897.954 697.08 897.954 695.39V695.38C897.954 693.69 896.584 692.32 894.894 692.32Z" fill="#858990"/>
<path d="M894.894 734.221H865.654C863.964 734.221 862.594 735.591 862.594 737.281V737.291C862.594 738.981 863.964 740.351 865.654 740.351H894.894C896.584 740.351 897.954 738.981 897.954 737.291V737.281C897.954 735.591 896.584 734.221 894.894 734.221Z" fill="#858990"/>
<path d="M894.894 776.121H865.654C863.964 776.121 862.594 777.491 862.594 779.181V779.191C862.594 780.881 863.964 782.251 865.654 782.251H894.894C896.584 782.251 897.954 780.881 897.954 779.191V779.181C897.954 777.491 896.584 776.121 894.894 776.121Z" fill="#858990"/>
<path d="M805.295 525.54H743.715C742.6 525.54 741.695 526.444 741.695 527.56V529.19C741.695 530.306 742.6 531.21 743.715 531.21H805.295C806.411 531.21 807.315 530.306 807.315 529.19V527.56C807.315 526.444 806.411 525.54 805.295 525.54Z" class="change-color-in-svg" fill="#4D61FC"/>
<path opacity="0.2" d="M805.295 525.54H743.715C742.6 525.54 741.695 526.444 741.695 527.56V529.19C741.695 530.306 742.6 531.21 743.715 531.21H805.295C806.411 531.21 807.315 530.306 807.315 529.19V527.56C807.315 526.444 806.411 525.54 805.295 525.54Z" fill="white"/>
<path d="M806.367 568.13H750.747C749.631 568.13 748.727 569.034 748.727 570.15V571.26C748.727 572.376 749.631 573.28 750.747 573.28H806.367C807.482 573.28 808.387 572.376 808.387 571.26V570.15C808.387 569.034 807.482 568.13 806.367 568.13Z" class="change-color-in-svg" fill="#4D61FC"/>
<path opacity="0.3" d="M806.367 568.13H750.747C749.631 568.13 748.727 569.034 748.727 570.15V571.26C748.727 572.376 749.631 573.28 750.747 573.28H806.367C807.482 573.28 808.387 572.376 808.387 571.26V570.15C808.387 569.034 807.482 568.13 806.367 568.13Z" fill="white"/>
<path d="M780.257 580.96H750.747C749.631 580.96 748.727 581.864 748.727 582.98V584.09C748.727 585.206 749.631 586.11 750.747 586.11H780.257C781.372 586.11 782.277 585.206 782.277 584.09V582.98C782.277 581.864 781.372 580.96 780.257 580.96Z" class="change-color-in-svg" fill="#4D61FC"/>
<path opacity="0.3" d="M780.257 580.96H750.747C749.631 580.96 748.727 581.864 748.727 582.98V584.09C748.727 585.206 749.631 586.11 750.747 586.11H780.257C781.372 586.11 782.277 585.206 782.277 584.09V582.98C782.277 581.864 781.372 580.96 780.257 580.96Z" fill="white"/>
<path d="M776.585 539.65H743.715C742.6 539.65 741.695 540.555 741.695 541.67V543.3C741.695 544.416 742.6 545.32 743.715 545.32H776.585C777.701 545.32 778.605 544.416 778.605 543.3V541.67C778.605 540.555 777.701 539.65 776.585 539.65Z" class="change-color-in-svg" fill="#4D61FC"/>
<path d="M816.732 610.021H751.372C750.256 610.021 749.352 610.925 749.352 612.04V613.151C749.352 614.266 750.256 615.17 751.372 615.17H816.732C817.847 615.17 818.752 614.266 818.752 613.151V612.04C818.752 610.925 817.847 610.021 816.732 610.021Z" class="change-color-in-svg" fill="#4D61FC"/>
<path opacity="0.3" d="M816.732 610.021H751.372C750.256 610.021 749.352 610.925 749.352 612.04V613.151C749.352 614.266 750.256 615.17 751.372 615.17H816.732C817.847 615.17 818.752 614.266 818.752 613.151V612.04C818.752 610.925 817.847 610.021 816.732 610.021Z" fill="white"/>
<path d="M780.882 622.85H751.372C750.256 622.85 749.352 623.754 749.352 624.87V625.98C749.352 627.095 750.256 628 751.372 628H780.882C781.997 628 782.902 627.095 782.902 625.98V624.87C782.902 623.754 781.997 622.85 780.882 622.85Z" class="change-color-in-svg" fill="#4D61FC"/>
<path opacity="0.3" d="M780.882 622.85H751.372C750.256 622.85 749.352 623.754 749.352 624.87V625.98C749.352 627.095 750.256 628 751.372 628H780.882C781.997 628 782.902 627.095 782.902 625.98V624.87C782.902 623.754 781.997 622.85 780.882 622.85Z" fill="white"/>
<path d="M782.942 651.67H751.372C750.256 651.67 749.352 652.574 749.352 653.69V654.8C749.352 655.916 750.256 656.82 751.372 656.82H782.942C784.057 656.82 784.962 655.916 784.962 654.8V653.69C784.962 652.574 784.057 651.67 782.942 651.67Z" class="change-color-in-svg" fill="#4D61FC"/>
<path opacity="0.3" d="M782.942 651.67H751.372C750.256 651.67 749.352 652.574 749.352 653.69V654.8C749.352 655.916 750.256 656.82 751.372 656.82H782.942C784.057 656.82 784.962 655.916 784.962 654.8V653.69C784.962 652.574 784.057 651.67 782.942 651.67Z" fill="white"/>
<path d="M801.422 693.33H751.372C750.256 693.33 749.352 694.234 749.352 695.35V696.46C749.352 697.576 750.256 698.48 751.372 698.48H801.422C802.537 698.48 803.442 697.576 803.442 696.46V695.35C803.442 694.234 802.537 693.33 801.422 693.33Z" class="change-color-in-svg" fill="#4D61FC"/>
<path opacity="0.3" d="M801.422 693.33H751.372C750.256 693.33 749.352 694.234 749.352 695.35V696.46C749.352 697.576 750.256 698.48 751.372 698.48H801.422C802.537 698.48 803.442 697.576 803.442 696.46V695.35C803.442 694.234 802.537 693.33 801.422 693.33Z" fill="white"/>
<path d="M782.942 734.98H751.372C750.256 734.98 749.352 735.885 749.352 737V738.11C749.352 739.226 750.256 740.13 751.372 740.13H782.942C784.057 740.13 784.962 739.226 784.962 738.11V737C784.962 735.885 784.057 734.98 782.942 734.98Z" class="change-color-in-svg" fill="#4D61FC"/>
<path opacity="0.3" d="M782.942 734.98H751.372C750.256 734.98 749.352 735.885 749.352 737V738.11C749.352 739.226 750.256 740.13 751.372 740.13H782.942C784.057 740.13 784.962 739.226 784.962 738.11V737C784.962 735.885 784.057 734.98 782.942 734.98Z" fill="white"/>
<path d="M801.422 776.63H751.372C750.256 776.63 749.352 777.534 749.352 778.65V779.76C749.352 780.876 750.256 781.78 751.372 781.78H801.422C802.537 781.78 803.442 780.876 803.442 779.76V778.65C803.442 777.534 802.537 776.63 801.422 776.63Z" class="change-color-in-svg" fill="#4D61FC"/>
<path opacity="0.3" d="M801.422 776.63H751.372C750.256 776.63 749.352 777.534 749.352 778.65V779.76C749.352 780.876 750.256 781.78 751.372 781.78H801.422C802.537 781.78 803.442 780.876 803.442 779.76V778.65C803.442 777.534 802.537 776.63 801.422 776.63Z" fill="white"/>
<path d="M776.585 539.65H743.715C742.6 539.65 741.695 540.555 741.695 541.67V543.3C741.695 544.416 742.6 545.32 743.715 545.32H776.585C777.701 545.32 778.605 544.416 778.605 543.3V541.67C778.605 540.555 777.701 539.65 776.585 539.65Z" class="change-color-in-svg" fill="#4D61FC"/>
<path opacity="0.3" d="M776.585 539.65H743.715C742.6 539.65 741.695 540.555 741.695 541.67V543.3C741.695 544.416 742.6 545.32 743.715 545.32H776.585C777.701 545.32 778.605 544.416 778.605 543.3V541.67C778.605 540.555 777.701 539.65 776.585 539.65Z" fill="white"/>
<path d="M780.882 664.5H751.372C750.256 664.5 749.352 665.404 749.352 666.52V667.63C749.352 668.746 750.256 669.65 751.372 669.65H780.882C781.997 669.65 782.902 668.746 782.902 667.63V666.52C782.902 665.404 781.997 664.5 780.882 664.5Z" class="change-color-in-svg" fill="#4D61FC"/>
<path opacity="0.3" d="M780.882 664.5H751.372C750.256 664.5 749.352 665.404 749.352 666.52V667.63C749.352 668.746 750.256 669.65 751.372 669.65H780.882C781.997 669.65 782.902 668.746 782.902 667.63V666.52C782.902 665.404 781.997 664.5 780.882 664.5Z" fill="white"/>
<path d="M780.882 706.16H751.372C750.256 706.16 749.352 707.065 749.352 708.18V709.29C749.352 710.406 750.256 711.31 751.372 711.31H780.882C781.997 711.31 782.902 710.406 782.902 709.29V708.18C782.902 707.065 781.997 706.16 780.882 706.16Z" class="change-color-in-svg" fill="#4D61FC"/>
<path opacity="0.3" d="M780.882 706.16H751.372C750.256 706.16 749.352 707.065 749.352 708.18V709.29C749.352 710.406 750.256 711.31 751.372 711.31H780.882C781.997 711.31 782.902 710.406 782.902 709.29V708.18C782.902 707.065 781.997 706.16 780.882 706.16Z" fill="white"/>
<path d="M780.882 747.811H751.372C750.256 747.811 749.352 748.715 749.352 749.831V750.941C749.352 752.056 750.256 752.961 751.372 752.961H780.882C781.997 752.961 782.902 752.056 782.902 750.941V749.831C782.902 748.715 781.997 747.811 780.882 747.811Z" class="change-color-in-svg" fill="#4D61FC"/>
<path opacity="0.3" d="M780.882 747.811H751.372C750.256 747.811 749.352 748.715 749.352 749.831V750.941C749.352 752.056 750.256 752.961 751.372 752.961H780.882C781.997 752.961 782.902 752.056 782.902 750.941V749.831C782.902 748.715 781.997 747.811 780.882 747.811Z" fill="white"/>
<path d="M780.882 789.46H751.372C750.256 789.46 749.352 790.364 749.352 791.48V792.59C749.352 793.706 750.256 794.61 751.372 794.61H780.882C781.997 794.61 782.902 793.706 782.902 792.59V791.48C782.902 790.364 781.997 789.46 780.882 789.46Z" class="change-color-in-svg" fill="#4D61FC"/>
<path opacity="0.3" d="M780.882 789.46H751.372C750.256 789.46 749.352 790.364 749.352 791.48V792.59C749.352 793.706 750.256 794.61 751.372 794.61H780.882C781.997 794.61 782.902 793.706 782.902 792.59V791.48C782.902 790.364 781.997 789.46 780.882 789.46Z" fill="white"/>
<path d="M716.845 547.12C723.218 547.12 728.385 541.953 728.385 535.58C728.385 529.207 723.218 524.04 716.845 524.04C710.471 524.04 705.305 529.207 705.305 535.58C705.305 541.953 710.471 547.12 716.845 547.12Z" fill="white"/>
<path d="M725.506 587.58C731.299 587.58 735.996 582.883 735.996 577.09C735.996 571.296 731.299 566.6 725.506 566.6C719.712 566.6 715.016 571.296 715.016 577.09C715.016 582.883 719.712 587.58 725.506 587.58Z" fill="white"/>
<path d="M725.506 629.32C731.299 629.32 735.996 624.623 735.996 618.83C735.996 613.036 731.299 608.34 725.506 608.34C719.712 608.34 715.016 613.036 715.016 618.83C715.016 624.623 719.712 629.32 725.506 629.32Z" fill="white"/>
<path d="M725.506 671.06C731.299 671.06 735.996 666.364 735.996 660.57C735.996 654.777 731.299 650.08 725.506 650.08C719.712 650.08 715.016 654.777 715.016 660.57C715.016 666.364 719.712 671.06 725.506 671.06Z" fill="white"/>
<path d="M725.506 712.791C731.299 712.791 735.996 708.094 735.996 702.301C735.996 696.507 731.299 691.811 725.506 691.811C719.712 691.811 715.016 696.507 715.016 702.301C715.016 708.094 719.712 712.791 725.506 712.791Z" fill="white"/>
<path d="M725.506 754.53C731.299 754.53 735.996 749.833 735.996 744.04C735.996 738.246 731.299 733.55 725.506 733.55C719.712 733.55 715.016 738.246 715.016 744.04C715.016 749.833 719.712 754.53 725.506 754.53Z" fill="white"/>
<path d="M725.506 796.26C731.299 796.26 735.996 791.564 735.996 785.77C735.996 779.977 731.299 775.28 725.506 775.28C719.712 775.28 715.016 779.977 715.016 785.77C715.016 791.564 719.712 796.26 725.506 796.26Z" fill="white"/>
<path d="M800.275 490.641H716.075C714.959 490.641 714.055 491.545 714.055 492.661V497.741C714.055 498.856 714.959 499.761 716.075 499.761H800.275C801.39 499.761 802.295 498.856 802.295 497.741V492.661C802.295 491.545 801.39 490.641 800.275 490.641Z" fill="#858990"/>
<path d="M228.557 581.65H350.047V426.94H228.557V581.65Z" fill="white"/>
<path d="M244.762 566.09H333.852V442.5H244.762V566.09Z" fill="#DDDDDD"/>
<path d="M353.577 426.95H350.047V581.66H353.577V426.95Z" fill="#DADDDF"/>
<path d="M274.542 521.27C285.201 521.27 293.842 512.629 293.842 501.97C293.842 491.311 285.201 482.67 274.542 482.67C263.883 482.67 255.242 491.311 255.242 501.97C255.242 512.629 263.883 521.27 274.542 521.27Z" class="change-color-in-svg" fill="#4D61FC"/>
<path d="M322.77 552.719L302.67 521.27L282.57 552.38L322.77 552.719Z" fill="#868A91"/>
<path opacity="0.2" d="M278.963 497.69H320.703V455.95H278.963V497.69Z" fill="black"/>
<path d="M566.471 448.25C566.011 448.32 565.851 448.81 565.911 449.25C565.971 449.69 566.471 449.87 566.911 449.81L570.561 449.05C570.993 448.942 571.399 448.751 571.757 448.486C572.115 448.221 572.418 447.888 572.647 447.507C572.876 447.125 573.028 446.702 573.094 446.262C573.16 445.821 573.138 445.372 573.031 444.94C572.882 444.388 572.601 443.88 572.213 443.46C571.824 443.04 571.34 442.721 570.801 442.53C570.115 442.274 569.52 441.821 569.09 441.229C568.659 440.637 568.413 439.931 568.381 439.2C568.367 438.755 568.33 438.311 568.271 437.87C566.321 430.29 566.471 448.25 566.471 448.25Z" fill="#C46F69"/>
<g opacity="0.15">
<path opacity="0.15" d="M573.051 445.001C572.806 444.119 572.234 443.364 571.451 442.891C571.451 442.991 571.521 443.091 571.551 443.201C571.658 443.631 571.68 444.079 571.615 444.518C571.55 444.958 571.398 445.38 571.17 445.76C570.942 446.141 570.64 446.473 570.284 446.737C569.927 447.002 569.521 447.193 569.091 447.301L566.471 447.851V448.291C566.011 448.361 565.851 448.851 565.911 449.291C565.971 449.731 566.471 449.911 566.911 449.851L570.561 449.091C571.433 448.877 572.184 448.327 572.651 447.56C573.118 446.794 573.262 445.873 573.051 445.001V445.001Z" fill="black"/>
</g>
<path d="M486.195 1047.57H511.585L516.275 1004.62L486.565 1004.71L486.195 1047.57Z" fill="#C46F69"/>
<path d="M488.813 1031.28L489.583 1030.61C495.333 1025.61 505.243 1025.68 510.833 1030.84L511.263 1031.27C511.935 1031.86 512.477 1032.58 512.856 1033.39C513.235 1034.2 513.441 1035.08 513.463 1035.97V1038.77C513.453 1040.4 513.737 1042.01 514.303 1043.54L516.923 1051.11C517.589 1052.92 517.928 1054.84 517.923 1056.77V1057.77C517.923 1059.25 516.403 1060.42 514.623 1060.42H484.253C482.383 1060.42 480.953 1059.23 480.953 1057.77V1057.41C480.955 1055.17 481.387 1052.94 482.223 1050.86L485.223 1043.45C485.93 1041.77 486.303 1039.98 486.323 1038.16L486.413 1036.03C486.481 1035.12 486.728 1034.23 487.14 1033.42C487.552 1032.6 488.12 1031.87 488.813 1031.28Z" fill="#25282F"/>
<path opacity="0.2" d="M486.359 1018.18V1021.67H506.289C506.952 1021.67 507.607 1021.81 508.212 1022.08C508.817 1022.35 509.359 1022.75 509.801 1023.24C510.243 1023.73 510.577 1024.31 510.78 1024.94C510.983 1025.57 511.051 1026.24 510.979 1026.9L509.309 1042.16H512.419L515.039 1018.16L486.359 1018.18Z" fill="black"/>
<path d="M579.742 1015.6L581.502 1041.69L633.222 1044.1L616.002 1026.75C612.732 1024.39 610.712 1019.22 610.052 1015.29L579.742 1015.6Z" fill="#C46F69"/>
<path opacity="0.2" d="M598.903 1022C601.292 1022 603.638 1022.65 605.684 1023.88C607.731 1025.11 609.401 1026.88 610.513 1029C611.366 1030.71 612.597 1032.2 614.112 1033.37L626.552 1045.8L634.242 1046.15L617.682 1028.56C614.022 1025.64 611.456 1021.56 610.403 1017H579.812L580.182 1022.13L598.903 1022Z" fill="black"/>
<path d="M580.451 1030.66C580.451 1030.66 592.171 1037.97 605.331 1031.66C605.067 1030.3 605.172 1028.89 605.637 1027.59C606.101 1026.28 606.907 1025.13 607.971 1024.24C610.161 1022.53 614.601 1021.96 615.791 1023.55C616.981 1025.14 618.871 1027.75 622.011 1031.55C626.381 1036.82 632.291 1042.89 636.861 1043.85C645.241 1045.6 662.161 1037.05 663.331 1054.95C663.331 1054.95 646.801 1061.17 631.411 1059.61C621.382 1058.45 611.526 1056.1 602.051 1052.61V1059.8H578.101C578.101 1059.8 572.671 1039.62 580.451 1030.66Z" fill="#25282F"/>
<path d="M576.352 1048.38C576.584 1052.25 577.173 1056.08 578.112 1059.84H602.062V1052.65C611.536 1056.14 621.392 1058.49 631.422 1059.65C646.812 1061.21 663.332 1055 663.332 1055C663.255 1053.62 663.04 1052.24 662.692 1050.9C650.661 1057.01 636.747 1058.27 623.812 1054.44C615.022 1051.88 607.942 1050.12 601.732 1048.34C601.732 1048.32 581.142 1047.88 576.352 1048.38Z" fill="black"/>
<path d="M634.724 1044.64C634.724 1044.64 622.524 1048.25 613.394 1041.26C606.634 1036.09 603.194 1033.07 605.924 1026.88C606.431 1025.67 607.273 1024.64 608.351 1023.9C609.428 1023.15 610.696 1022.74 612.004 1022.69C612.004 1022.69 620.514 1042.62 634.724 1044.64Z" fill="black"/>
<path d="M611.325 676.66V1017.07H579.815L552.375 739.53C552.307 738.654 551.909 737.836 551.261 737.242C550.613 736.648 549.764 736.322 548.885 736.33V736.33C548.019 736.338 547.187 736.671 546.555 737.264C545.924 737.857 545.538 738.666 545.475 739.53L514.945 1018H486.195L495.685 678.61L611.325 676.68V676.66Z" class="change-color-in-svg" fill="#4D61FC"/>
<path d="M612.362 1017.02H578.772L578.102 1010.12H612.282L612.362 1017.02Z" class="change-color-in-svg" fill="#4D61FC"/>
<path opacity="0.2" d="M612.362 1017.07L578.772 1017.02L578.102 1010.12H612.282L612.362 1017.07Z" fill="white"/>
<path opacity="0.2" d="M612.359 1017.07H597.859V1010.08L612.279 1010.12L612.359 1017.07Z" fill="black"/>
<path opacity="0.2" d="M500.695 1017.66L528.585 750.77C529.074 746.761 531.015 743.07 534.04 740.395C537.066 737.719 540.967 736.245 545.005 736.25H548.915C548.056 736.252 547.228 736.577 546.596 737.16C545.965 737.744 545.575 738.543 545.505 739.4L514.945 1018L500.695 1017.66Z" fill="black"/>
<path opacity="0.2" d="M611.364 679.101V1010.1H597.904L594.094 679.101H611.364Z" fill="black"/>
<path d="M566.588 417.28L570.348 461.76C570.566 464.408 569.862 467.049 568.355 469.236C566.847 471.423 564.63 473.022 562.078 473.76L559.698 474.44L561.698 491.87L544.818 489.59L525.398 491.12L527.538 445L549.098 424.35L566.588 417.28Z" fill="#C46F69"/>
<path d="M764.493 560.691C764.493 560.691 767.063 564.501 759.703 568.941C752.343 573.381 731.773 573.881 731.773 573.881L743.773 551.641L764.493 560.691Z" fill="#C46F69"/>
<path d="M724.589 551.571L730.289 545.281C732.797 542.514 735.789 540.229 739.119 538.541L748.859 533.601C749.211 533.356 749.644 533.259 750.067 533.33C750.489 533.401 750.867 533.635 751.119 533.981C751.817 534.937 752.166 536.104 752.108 537.287C752.049 538.47 751.588 539.597 750.799 540.481L743.999 545.481C743.832 545.601 743.717 545.781 743.678 545.984C743.639 546.187 743.679 546.396 743.789 546.571V546.571C743.889 546.736 744.045 546.86 744.228 546.92C744.412 546.981 744.611 546.974 744.789 546.901L775.959 534.901C776.266 534.784 776.592 534.73 776.919 534.743C777.247 534.756 777.568 534.835 777.864 534.975C778.16 535.115 778.425 535.313 778.642 535.558C778.86 535.803 779.026 536.09 779.129 536.401C779.33 536.963 779.317 537.58 779.092 538.133C778.867 538.687 778.446 539.138 777.909 539.401L764.089 546.221C764.089 546.221 769.819 547.911 765.529 553.221C765.529 553.221 768.839 558.631 761.529 563.071C754.219 567.511 731.799 573.971 731.799 573.971L709.999 588.821L698.109 566.621L724.589 551.571Z" fill="#C46F69"/>
<path opacity="0.3" d="M765.552 553.13L755.352 557.04" stroke="black" stroke-width="1.03569" stroke-linecap="round" stroke-linejoin="round"/>
<path opacity="0.3" d="M764.362 560.561L754.172 564.471" stroke="black" stroke-width="1.03569" stroke-linecap="round" stroke-linejoin="round"/>
<path opacity="0.3" d="M764.294 546.34L754.094 550.25" stroke="black" stroke-width="1.03569" stroke-linecap="round" stroke-linejoin="round"/>
<path opacity="0.2" d="M759.701 568.94C752.341 573.38 731.771 573.88 731.771 573.88L719.001 582.62L717.531 578.47L730.121 569.84C730.9 569.308 731.828 569.038 732.771 569.07L741.121 569.36C748.651 569.74 757.761 568.88 764.121 564.87C764.181 564.87 763.761 566.23 759.701 568.94Z" fill="black"/>
<path d="M521.376 466.58C527.496 471.17 528.846 471.58 534.586 470.09C536.557 469.587 538.407 468.693 540.026 467.46C545.656 463.07 551.306 453.88 551.686 443.71L555.306 441.79C556.306 440.27 556.226 428.4 554.396 423.38C558.396 420.31 562.926 418.76 565.506 419.01C566.256 420.24 566.186 421.4 567.176 424.14C572.906 412.78 559.546 406.8 556.766 405.28C551.226 402.28 539.366 401.84 532.636 403.05C517.316 405.83 508.556 415.19 508.876 431.83C509.146 446 513.356 458.9 521.376 466.58Z" fill="black"/>
<path d="M551.68 443.71C554.12 454.41 556.34 471.01 559.68 475.06C562.49 477.06 568.79 474.44 569.8 467.88C570.8 461.48 571.31 455.49 569.44 450.88C569.27 454.38 563.21 458.38 560.99 454.57L555.31 441.76L551.68 443.71Z" fill="black"/>
<path opacity="0.15" d="M543.375 447.54L545.685 449.64C547.327 450.125 548.996 450.509 550.685 450.79L544.825 453.65L543.375 447.54Z" fill="black"/>
<path d="M552.004 445.19C553.004 448.56 554.074 451.03 549.584 451.05C541.054 451.05 539.344 439.82 544.094 437.23C544.592 436.898 545.158 436.679 545.75 436.591C546.343 436.503 546.947 436.547 547.521 436.72C548.094 436.893 548.623 437.191 549.068 437.592C549.512 437.993 549.863 438.488 550.094 439.04L552.004 445.19Z" fill="#C46F69"/>
<path opacity="0.3" d="M549.533 443.87C549.408 442.776 549.024 441.727 548.413 440.81C547.917 440.149 547.213 439.673 546.413 439.46C545.991 439.42 545.565 439.467 545.162 439.6C544.759 439.732 544.388 439.947 544.073 440.231C543.973 440.356 543.911 440.507 543.895 440.667C543.879 440.827 543.909 440.988 543.983 441.131C544.153 441.421 544.453 441.401 544.743 441.231C544.947 441.017 545.198 440.855 545.475 440.756C545.753 440.657 546.05 440.624 546.343 440.66C546.793 440.66 547.123 441.06 547.613 441.66C548.134 442.392 548.455 443.247 548.543 444.141L548.763 445.141C548.763 445.441 549.093 445.561 549.393 445.541C549.693 445.521 549.823 445.21 549.793 444.91L549.573 443.91" fill="black"/>
<path d="M572.049 443.391C571.846 443.391 571.649 443.321 571.491 443.194C571.332 443.067 571.222 442.889 571.179 442.691L568.239 429.691C568.214 429.576 568.212 429.457 568.233 429.341C568.255 429.226 568.299 429.115 568.363 429.017C568.427 428.918 568.51 428.833 568.607 428.767C568.704 428.701 568.814 428.654 568.929 428.631C569.044 428.604 569.163 428.601 569.279 428.622C569.395 428.643 569.506 428.687 569.605 428.751C569.704 428.815 569.789 428.899 569.855 428.997C569.921 429.095 569.966 429.205 569.989 429.321L572.929 442.321C572.976 442.551 572.93 442.791 572.801 442.988C572.672 443.185 572.469 443.322 572.239 443.371C572.177 443.387 572.113 443.393 572.049 443.391V443.391Z" fill="#21252B"/>
<path d="M570.223 434.383L550.133 438.845L550.521 440.592L570.611 436.131L570.223 434.383Z" fill="#21252B"/>
<path opacity="0.15" d="M517.251 1017.98H500.211L501.241 1011.08H517.921L517.251 1017.98Z" fill="black"/>
<path d="M517.252 1017.98H483.742L484.242 1011.08H517.922L517.252 1017.98Z" class="change-color-in-svg" fill="#4D61FC"/>
<path opacity="0.2" d="M517.119 1017.98H483.609L484.099 1011.08H517.779L517.119 1017.98Z" fill="white"/>
<path opacity="0.2" d="M517.105 1017.98H500.695L501.395 1011.08H517.785L517.105 1017.98Z" fill="black"/>
<path d="M565.703 496.9H529.703" stroke="#21252B" stroke-width="1.33952" stroke-miterlimit="10"/>
<path opacity="0.15" d="M559.705 474.48L552.295 474.33C551.784 474.315 551.278 474.427 550.82 474.654C550.362 474.881 549.968 475.218 549.671 475.634C549.374 476.051 549.185 476.533 549.119 477.04C549.054 477.547 549.114 478.062 549.295 478.54L551.995 485.67H560.995L559.705 474.48Z" fill="black"/>
<path d="M517.625 488.15L520.755 481.15C521.459 479.584 522.575 478.239 523.984 477.258C525.393 476.277 527.042 475.697 528.755 475.58C541.425 474.74 552.475 476.71 562.025 483.7C562.698 484.201 563.23 484.868 563.568 485.635C563.906 486.403 564.04 487.245 563.955 488.08L563.255 495.52L517.625 488.15Z" fill="#F2F8FC"/>
<path d="M494.891 505.13L506.501 492.6C511.081 487.6 518.261 484.69 525.951 484.6L549.181 484.24C558.291 484.1 566.701 488.24 570.751 494.76L577.171 505.16L494.891 505.13Z" fill="#3F4249"/>
<path d="M481.594 711.57L488.684 725.48L498.784 695.08L481.594 711.57Z" fill="#C46F69"/>
<path d="M505.642 697.78L479.532 639.12L444.602 618L441.512 631.25C440.983 633.543 441.193 635.944 442.112 638.11L479.202 706.75L505.642 697.78Z" fill="#3F4249"/>
<path d="M462.052 518.91L442.812 625.85L479.533 639.12L497.443 496.32L471.163 507.49C468.815 508.487 466.752 510.053 465.162 512.047C463.571 514.041 462.503 516.4 462.052 518.91V518.91Z" fill="#3F4249"/>
<path opacity="0.15" d="M479.53 639.12L497.44 496.32L493.22 498.11L473.43 639.12L497.44 693.7L503.64 692.7L479.53 639.12Z" fill="black"/>
<path d="M478.281 705.09L481.591 711.57L505.211 688.91L501.891 681.63L478.281 705.09Z" fill="#F4F4F4"/>
<path d="M509.076 490.58C509.076 490.58 486.076 502.38 470.926 507.84C468.584 508.692 466.59 510.297 465.259 512.404C463.927 514.51 463.331 516.999 463.566 519.48C465.766 543.35 480.906 583.68 480.906 583.68C480.906 583.68 491.086 628.26 491.086 635.42C491.086 642.58 488.636 727.23 488.636 727.23H605.236L622.236 720.68C622.236 720.68 611.916 642.58 609.816 620.68C607.716 598.78 610.816 572.74 610.816 572.74L609.006 532.89L616.486 511L565.706 489.29L509.076 490.58Z" fill="#3F4249"/>
<path d="M663.104 583.07L673.884 620.07L665.724 625.59C662.278 627.915 658.074 628.84 653.97 628.175C649.866 627.51 646.17 625.305 643.634 622.01L602.004 567.88L591.664 501C591.664 500.94 591.664 500.89 591.754 500.91C592.394 501.19 600.944 503.74 608.164 505.91C614.682 507.846 620.244 512.142 623.764 517.96C635.644 537.63 662.804 582.6 663.104 583.07Z" fill="#3F4249"/>
<path opacity="0.15" d="M611.366 636.31C608.826 618.31 608.876 596.5 609.206 596.05L610.836 573.05C611.426 566.05 600.176 565.55 600.556 571.86C600.556 571.86 598.716 618.2 600.826 636.78C602.936 655.36 613.606 724 613.606 724L622.246 720.68C622.246 720.68 614.006 654.83 611.366 636.31Z" fill="black"/>
<path d="M708.49 558.79L655.75 586.55L672.23 621.26L723.2 582.53L708.49 558.79Z" fill="#3F4249"/>
<path d="M708.529 558.71L701.969 562.22L717.479 586.74L723.779 582.73L708.529 558.71Z" fill="#F4F4F4"/>
<path opacity="0.15" d="M494.319 727.11C495.119 721.52 497.019 641.55 497.019 634.77C497.019 627.77 482.129 582.68 482.129 582.68C482.129 582.68 468.179 542.87 466.029 519.45C465.569 514.45 472.519 509.74 477.249 508.03C492.119 502.67 508.689 491.09 508.689 491.09C508.689 491.09 486.119 502.67 471.249 508C468.936 508.825 466.966 510.401 465.652 512.476C464.338 514.551 463.756 517.006 463.999 519.45C466.149 542.87 480.869 583.86 480.869 583.86C480.869 583.86 491.049 628.39 491.049 635.42C491.049 642.45 488.599 727.23 488.599 727.23L494.319 727.11Z" fill="black"/>
<path opacity="0.15" d="M534.155 726.92L538.525 690.92C538.537 690.856 538.571 690.798 538.622 690.757C538.672 690.715 538.735 690.692 538.8 690.692C538.865 690.692 538.928 690.715 538.978 690.757C539.029 690.798 539.063 690.856 539.075 690.92L547.285 726.92C547.294 726.96 547.294 727.002 547.284 727.043C547.275 727.083 547.257 727.121 547.231 727.154C547.205 727.186 547.172 727.213 547.135 727.231C547.097 727.249 547.057 727.259 547.015 727.26H534.425C534.383 727.259 534.342 727.249 534.305 727.231C534.268 727.213 534.235 727.186 534.209 727.154C534.183 727.121 534.165 727.083 534.156 727.043C534.146 727.002 534.146 726.96 534.155 726.92V726.92Z" fill="black"/>
</svg>