<svg class="gridItem__media" version="1.1" id="Layer_1" xmlns="http://www.w3.org/2000/svg" xmlns:xlink="http://www.w3.org/1999/xlink" x="0px" y="0px" width="1600" height="1200" viewBox="0 0 1600 1200" style="enable-background:new 0 0 1600 1200;" xml:space="preserve" fill="none">
<path d="M253.28 1058.31L196.08 517.891C194.52 503.201 197.89 488.401 205.66 475.831L393.07 172.461C406.01 151.511 429.44 139.401 454.01 140.961L1192.54 187.791C1218.98 189.471 1241.92 206.641 1250.98 231.541L1400.28 642.151C1404.01 652.411 1405.16 663.431 1403.64 674.241L1349.54 1057.99L253.28 1058.31Z" fill="#F3F3F3"/>
<path d="M864.38 778.86H843.43C840.18 778.86 837.58 776.26 837.58 773.01V738.58H870.3V773.01C870.22 776.26 867.62 778.86 864.38 778.86Z" fill="#868A91"/>
<path d="M875.34 767.081H870.22V764.561H875.34C876.64 764.561 877.69 763.501 877.69 762.211V748.171C877.69 746.871 876.63 745.821 875.34 745.821H870.22V743.301H875.34C878.02 743.301 880.13 745.491 880.13 748.091V762.131C880.21 764.891 878.02 767.081 875.34 767.081Z" fill="#868A91"/>
<path d="M872.5 745.81V743.29H870.23V738.5H863.09V772.36C863.09 775.29 860.74 777.64 857.81 777.64H839.71C840.69 778.45 841.98 778.94 843.37 778.94H864.32C867.57 778.94 870.17 776.34 870.17 773.09V767.16H872.44V764.64H870.17V745.88H872.52L872.5 745.81Z" fill="#61656D"/>
<path d="M848.71 736.07C848.46 736.07 848.3 735.91 848.3 735.66C848.3 732.58 845.78 729.98 842.62 729.98H839.86C837.42 729.98 835.47 728.03 835.47 725.59C835.47 723.15 837.42 721.2 839.86 721.2H855.45C857.4 721.2 859.02 719.58 859.02 717.63C859.02 715.68 857.4 714.06 855.45 714.06H851.71C849.19 714.06 847.24 712.03 847.24 709.59C847.24 709.34 847.4 709.18 847.65 709.18C847.9 709.18 848.06 709.34 848.06 709.59C848.06 711.62 849.68 713.25 851.72 713.25H855.46C857.9 713.25 859.85 715.2 859.85 717.64C859.85 720.08 857.9 722.03 855.46 722.03H839.87C837.92 722.03 836.3 723.65 836.3 725.6C836.3 727.55 837.92 729.17 839.87 729.17H842.63C846.2 729.17 849.12 732.1 849.12 735.66C849.11 735.91 848.95 736.07 848.71 736.07Z" fill="white"/>
<path d="M857.72 738.591C857.47 738.591 857.31 738.43 857.31 738.18V737.201C857.31 736.471 856.74 735.901 856.01 735.901C854.79 735.901 853.9 734.92 853.9 733.79V732.081C853.9 730.861 854.88 729.97 856.01 729.97H858.61C862.1 729.97 865.02 727.13 865.02 723.56V720.391C865.02 720.141 865.18 719.98 865.43 719.98C865.68 719.98 865.84 720.141 865.84 720.391V723.47C865.84 727.45 862.59 730.69 858.62 730.69H856.02C855.29 730.69 854.72 731.26 854.72 731.99V733.701C854.72 734.431 855.29 735 856.02 735C857.24 735 858.13 735.98 858.13 737.11V738.091C858.13 738.341 857.96 738.591 857.72 738.591Z" fill="white"/>
<path d="M1263.2 787.73H1250.68L1288.31 1057.99H1293.21L1263.2 787.73Z" fill="#DADDDF"/>
<path d="M772.53 1057.99H777.43L815.05 787.73H802.54L772.53 1057.99Z" fill="#DADDDF"/>
<path d="M1293.2 1057.99H1291.09L1258.83 795.341C1258.6 793.491 1257.13 792.05 1255.28 791.86L1251.19 791.451L1250.67 787.73H1263.19L1293.2 1057.99Z" fill="#B2B6BB"/>
<path d="M1301.71 787.73H1289.2L1326.82 1057.99H1331.73L1301.71 787.73Z" fill="#DADDDF"/>
<path d="M811.05 1057.99H815.95L853.57 787.73H841.06L811.05 1057.99Z" fill="#DADDDF"/>
<path d="M1331.72 1057.99H1329.61L1317.04 962.17C1317.04 962.17 1317.04 962.17 1313.17 959.94L1289.71 791.451L1289.19 787.73H1301.71L1331.72 1057.99Z" fill="#B2B6BB"/>
<path d="M814.15 1057.99L826.35 962.99C821.94 959.94 821.94 959.94 821.94 959.94L841.06 787.73H853.58L815.96 1057.99H814.15Z" fill="#B2B6BB"/>
<path d="M817.92 782.96C817.92 785.6 820.05 787.729 822.68 787.729H1322.38C1325.01 787.729 1327.14 785.59 1327.14 782.96C1327.14 780.33 1325.01 778.189 1322.38 778.189H822.68C820.05 778.179 817.92 780.32 817.92 782.96Z" fill="#61656D"/>
<path d="M817.92 782.96C817.92 785.6 820.05 787.729 822.68 787.729H1322.38C1325.01 787.729 1327.14 785.59 1327.14 782.96C1327.14 780.33 1325.01 778.189 1322.38 778.189H822.68C820.05 778.179 817.92 780.32 817.92 782.96Z" fill="#B2B6BB"/>
<path d="M780.43 782.96C780.43 785.6 782.56 787.729 785.19 787.729H1231.32C1233.95 787.729 1236.08 785.59 1236.08 782.96C1236.08 780.33 1233.95 778.189 1231.32 778.189H785.19C782.56 778.179 780.43 780.32 780.43 782.96Z" fill="#DADDDF"/>
<path d="M1250.68 787.73H815.05L808.23 836.72H1257.5L1250.68 787.73Z" fill="#DADDDF"/>
<path d="M809.14 795.64C809.39 793.7 808.11 791.89 806.2 791.49L802.22 790.65L802.55 787.72H815.06L1249.31 787.68L1249.32 787.73H1250.69L1257.51 836.72H1255.21L1250.36 801.14H813.19L777.43 1057.99H775.63L809.14 795.64Z" fill="#B2B6BB"/>
<path d="M1268.64 836.72H1300.08L1293.21 787.73H1261.24L1268.64 836.72Z" fill="#B2B6BB"/>
<path d="M1066.74 778.18H980.5C974.26 778.18 969.21 773.12 969.21 766.89C969.21 760.65 974.27 755.6 980.5 755.6H1066.74V778.18Z" fill="#B2B6BB"/>
<path d="M1059.56 778.18H1103.07V774.86L1089.6 774.84V758.92L1103.07 758.96V755.59H1059.56C1053.32 755.59 1048.27 760.65 1048.27 766.88C1048.27 773.13 1053.32 778.18 1059.56 778.18Z" fill="#858990"/>
<path d="M1059.61 774.85H1099.91V758.93H1059.61C1055.21 758.93 1051.65 762.49 1051.65 766.89C1051.65 771.29 1055.21 774.85 1059.61 774.85Z" fill="white"/>
<path d="M1039.55 755.599H967.65C966.01 755.599 964.68 754.27 964.68 752.63V741.24C964.68 739.6 966.01 738.27 967.65 738.27H1039.55V755.599Z" fill="white"/>
<path d="M1008.5 750.349H983.62C982.97 750.349 982.44 749.819 982.44 749.169V745.219C982.44 744.569 982.97 744.039 983.62 744.039H1008.5C1009.15 744.039 1009.68 744.569 1009.68 745.219V749.169C1009.68 749.819 1009.16 750.349 1008.5 750.349Z" fill="#DADDDF"/>
<path d="M1028.34 755.6H1067.44V738.26H1028.34C1026.7 738.26 1025.37 739.59 1025.37 741.23V752.62C1025.37 754.26 1026.7 755.6 1028.34 755.6Z" fill="#B1B5BA"/>
<path d="M1029.41 753.031H1067.44V740.811H1029.41C1028.61 740.811 1027.97 741.451 1027.97 742.251V751.591C1027.96 752.391 1028.61 753.031 1029.41 753.031Z" fill="white"/>
<path d="M1004.47 738.25H1089.56C1091.79 738.25 1093.6 736.44 1093.6 734.21V724.94C1093.6 722.71 1091.79 720.9 1089.56 720.9H1004.47V738.25V738.25Z" fill="#DADDDF"/>
<path d="M1014.62 735.691H975.47V723.471H1014.62C1015.42 723.471 1016.06 724.111 1016.06 724.911V734.251C1016.06 735.051 1015.41 735.691 1014.62 735.691Z" fill="white"/>
<path d="M1015.68 720.91H972.52V723.47H1014.61C1015.41 723.47 1016.05 724.11 1016.05 724.91V734.25C1016.05 735.05 1015.41 735.69 1014.61 735.69H972.52V738.25H1015.68C1017.32 738.25 1018.65 736.92 1018.65 735.28V723.89C1018.65 722.24 1017.32 720.91 1015.68 720.91Z" fill="#B1B5BA"/>
<path d="M312.55 196.52L312.57 537.12C312.57 541.5 316.12 545.05 320.5 545.05L813.65 545.03C818.03 545.03 821.58 541.48 821.58 537.1L821.56 196.5C821.56 192.12 818.01 188.57 813.63 188.57L320.48 188.59C316.1 188.59 312.55 192.14 312.55 196.52Z" fill="#868A91"/>
<path d="M821.56 196.5C821.56 192.12 818.01 188.57 813.63 188.57L320.48 188.59C316.1 188.59 312.55 192.14 312.55 196.52V212.31H821.57L821.56 196.5Z" fill="#3F4249"/>
<path d="M306.57 196.52L306.59 537.12C306.59 541.5 310.14 545.05 314.52 545.05L807.67 545.03C812.05 545.03 815.6 541.48 815.6 537.1L815.58 196.5C815.58 192.12 812.03 188.57 807.65 188.57L314.5 188.59C310.12 188.59 306.57 192.14 306.57 196.52Z" fill="#D8DBDD"/>
<path d="M815.59 196.5C815.59 192.12 812.04 188.57 807.66 188.57L314.51 188.59C310.13 188.59 306.58 192.14 306.58 196.52V212.31H815.6L815.59 196.5Z" fill="#61656D"/>
<path d="M325.45 205.36C328.17 205.36 330.37 203.16 330.37 200.44C330.37 197.72 328.17 195.52 325.45 195.52C322.73 195.52 320.53 197.72 320.53 200.44C320.53 203.16 322.73 205.36 325.45 205.36Z" fill="#B2B6BB"/>
<path d="M343.17 205.36C345.89 205.36 348.09 203.16 348.09 200.44C348.09 197.72 345.89 195.52 343.17 195.52C340.45 195.52 338.25 197.72 338.25 200.44C338.25 203.16 340.45 205.36 343.17 205.36Z" fill="white"/>
<path d="M360.9 205.36C363.62 205.36 365.82 203.16 365.82 200.44C365.82 197.72 363.62 195.52 360.9 195.52C358.18 195.52 355.98 197.72 355.98 200.44C355.98 203.16 358.18 205.36 360.9 205.36Z" fill="black"/>
<path d="M763.1 252.52H414.77C412.66 252.52 410.94 250.81 410.94 248.69V233.35C410.94 231.24 412.65 229.52 414.77 229.52H763.1C765.21 229.52 766.93 231.23 766.93 233.35V248.69C766.93 250.81 765.22 252.52 763.1 252.52Z" fill="#B2B6BB"/>
<path d="M755.86 237.82C754.16 236.12 751.4 236.12 749.71 237.82C748.01 239.52 748.01 242.28 749.71 243.97C751.26 245.52 753.7 245.64 755.4 244.35L757.83 246.78L758.67 245.94L756.24 243.51C757.53 241.81 757.41 239.38 755.86 237.82ZM755.02 243.14C753.78 244.38 751.78 244.37 750.54 243.14C749.31 241.91 749.31 239.9 750.54 238.66C751.77 237.43 753.78 237.42 755.02 238.66C756.26 239.89 756.26 241.9 755.02 243.14Z" fill="#3F4249"/>
<path d="M387.98 236.609H375.08V237.879H387.98V236.609Z" fill="#868A91"/>
<path d="M387.98 241.131H375.08V242.401H387.98V241.131Z" fill="#868A91"/>
<path d="M387.98 245.65H375.08V246.92H387.98V245.65Z" fill="#868A91"/>
<path d="M344.36 252.519H329.53C327.28 252.519 325.45 250.689 325.45 248.439V233.609C325.45 231.359 327.28 229.529 329.53 229.529H344.36C346.61 229.529 348.44 231.359 348.44 233.609V248.439C348.44 250.699 346.62 252.519 344.36 252.519Z" fill="#61656D"/>
<path d="M333.43 236.84V245.42C333.43 245.86 333.91 246.12 334.28 245.9L341.37 241.61C341.73 241.39 341.73 240.87 341.37 240.65L334.28 236.36C333.9 236.14 333.43 236.41 333.43 236.84Z" fill="white"/>
<path d="M570.79 425.93H331.23C328.83 425.93 326.88 423.98 326.88 421.58V269.12C326.88 266.72 328.83 264.77 331.23 264.77H570.79C573.19 264.77 575.14 266.72 575.14 269.12V421.58C575.14 423.98 573.19 425.93 570.79 425.93Z" fill="#61656D"/>
<g opacity="0.7">
<path opacity="0.7" d="M564.14 444.131H372.46C371.21 444.131 370.21 443.121 370.21 441.881C370.21 440.631 371.22 439.631 372.46 439.631H564.14C565.39 439.631 566.39 440.641 566.39 441.881C566.4 443.121 565.39 444.131 564.14 444.131Z" fill="#3F4249"/>
<path opacity="0.7" d="M564.14 460.471H372.46C371.21 460.471 370.21 459.461 370.21 458.221C370.21 456.971 371.22 455.971 372.46 455.971H564.14C565.39 455.971 566.39 456.981 566.39 458.221C566.4 459.461 565.39 460.471 564.14 460.471Z" fill="#B2B6BB"/>
<path opacity="0.7" d="M480.19 476.82H372.46C371.21 476.82 370.21 475.81 370.21 474.57C370.21 473.32 371.22 472.32 372.46 472.32H480.19C481.44 472.32 482.44 473.33 482.44 474.57C482.45 475.81 481.44 476.82 480.19 476.82Z" fill="#B2B6BB"/>
</g>
<g opacity="0.7">
<path opacity="0.7" d="M537.61 508.96H398.16C397.25 508.96 396.52 508.23 396.52 507.32C396.52 506.41 397.25 505.68 398.16 505.68H537.62C538.53 505.68 539.26 506.41 539.26 507.32C539.25 508.23 538.52 508.96 537.61 508.96Z" fill="white"/>
<path opacity="0.7" d="M487.26 524.171H398.16C397.25 524.171 396.52 523.441 396.52 522.531C396.52 521.621 397.25 520.891 398.16 520.891H487.26C488.17 520.891 488.9 521.621 488.9 522.531C488.9 523.431 488.16 524.171 487.26 524.171Z" fill="white"/>
</g>
<path d="M566.4 413.631H332.76V414.871H566.4V413.631Z" fill="#3F4249"/>
<path d="M469.68 413.26H332.76V415.25H469.68V413.26V413.26Z" fill="white"/>
<path d="M470.13 417.6C471.98 417.6 473.47 416.11 473.47 414.26C473.47 412.41 471.98 410.92 470.13 410.92C468.28 410.92 466.79 412.41 466.79 414.26C466.79 416.11 468.29 417.6 470.13 417.6Z" fill="white"/>
<path d="M449.58 375.759C432.79 375.759 419.17 362.149 419.17 345.349C419.17 328.559 432.78 314.939 449.58 314.939C466.37 314.939 479.99 328.549 479.99 345.349C479.98 362.139 466.37 375.759 449.58 375.759Z" fill="#868A91"/>
<path d="M441.35 334.291V356.971C441.35 358.121 442.61 358.831 443.59 358.231L462.34 346.891C463.29 346.311 463.29 344.941 462.34 344.361L443.59 333.021C442.6 332.431 441.35 333.141 441.35 334.291Z" fill="white"/>
<path d="M377.59 533.969H329.54C328.16 533.969 327.04 532.849 327.04 531.469V490.619C327.04 489.239 328.16 488.119 329.54 488.119H377.59C378.97 488.119 380.09 489.239 380.09 490.619V531.469C380.09 532.859 378.97 533.969 377.59 533.969Z" fill="white"/>
<path d="M378.3 531.38H328.84V490.95C328.84 490.34 329.34 489.84 329.95 489.84H377.19C377.8 489.84 378.3 490.34 378.3 490.95V531.38V531.38Z" fill="#F4F4F4"/>
<path d="M339.54 506.15C342.56 506.15 345 503.71 345 500.69C345 497.67 342.56 495.23 339.54 495.23C336.52 495.23 334.08 497.67 334.08 500.69C334.08 503.71 336.52 506.15 339.54 506.15Z" fill="#B0B4B9"/>
<path d="M328.84 531.42V526.64L347.57 510.2C348.15 509.69 349 509.67 349.61 510.14L354.71 514.14L365.56 504C366.2 503.4 367.19 503.43 367.8 504.06L378.29 514.9V531.42C378.29 531.95 377.86 532.37 377.34 532.37H329.78C329.26 532.37 328.84 531.94 328.84 531.42Z" fill="#B0B4B9"/>
<path d="M348.3 468.121H332.59C329.53 468.121 327.05 465.641 327.05 462.581V445.171C327.05 442.111 329.53 439.631 332.59 439.631H348.3C351.36 439.631 353.84 442.111 353.84 445.171V462.581C353.84 465.641 351.36 468.121 348.3 468.121Z" fill="#61656D"/>
<path d="M725.16 395.409H599.78C598.64 395.409 597.72 394.489 597.72 393.349C597.72 392.209 598.64 391.289 599.78 391.289H725.16C726.3 391.289 727.22 392.209 727.22 393.349C727.21 394.489 726.29 395.409 725.16 395.409Z" fill="#B2B6BB"/>
<path d="M725.16 410.319H599.78C598.64 410.319 597.72 409.399 597.72 408.259C597.72 407.119 598.64 406.199 599.78 406.199H725.16C726.3 406.199 727.22 407.119 727.22 408.259C727.21 409.399 726.29 410.319 725.16 410.319Z" fill="#B2B6BB"/>
<path d="M669.75 425.229H599.78C598.64 425.229 597.72 424.309 597.72 423.169C597.72 422.029 598.64 421.109 599.78 421.109H669.75C670.89 421.109 671.81 422.029 671.81 423.169C671.8 424.299 670.88 425.229 669.75 425.229Z" fill="#B2B6BB"/>
<path d="M737.22 379.82H600.86C599.12 379.82 597.72 378.41 597.72 376.68V290.37C597.72 288.63 599.13 287.23 600.86 287.23H737.22C738.96 287.23 740.36 288.64 740.36 290.37V376.68C740.36 378.41 738.96 379.82 737.22 379.82Z" fill="#B2B6BB"/>
<path d="M669.04 353.69C657.9 353.69 648.86 344.66 648.86 333.51C648.86 322.37 657.89 313.33 669.04 313.33C680.18 313.33 689.22 322.36 689.22 333.51C689.22 344.66 680.19 353.69 669.04 353.69Z" fill="#868A91"/>
<path d="M662.87 326.181V341.231C662.87 341.991 663.7 342.461 664.36 342.071L676.8 334.551C677.43 334.171 677.43 333.251 676.8 332.871L664.36 325.351C663.7 324.941 662.87 325.411 662.87 326.181Z" fill="white"/>
<path d="M815.6 398.959H780.24C779.11 398.959 778.19 398.039 778.19 396.909C778.19 395.779 779.11 394.859 780.24 394.859H815.6V398.959Z" fill="#B2B6BB"/>
<path d="M815.6 413.85H780.24C779.11 413.85 778.19 412.93 778.19 411.8C778.19 410.67 779.11 409.75 780.24 409.75H815.6V413.85Z" fill="#B2B6BB"/>
<path d="M815.6 428.731H780.24C779.11 428.731 778.19 427.811 778.19 426.681C778.19 425.551 779.11 424.631 780.24 424.631H815.6V428.731Z" fill="#B2B6BB"/>
<path opacity="0.7" d="M815.6 379.691H781.32C779.59 379.691 778.18 378.281 778.18 376.551V290.361C778.18 288.631 779.59 287.221 781.32 287.221H815.6V379.691Z" fill="#B2B6BB"/>
<path d="M680.78 513.219H599.06C598.32 513.219 597.72 512.619 597.72 511.879C597.72 511.139 598.32 510.539 599.06 510.539H680.78C681.52 510.539 682.12 511.139 682.12 511.879C682.12 512.619 681.52 513.219 680.78 513.219Z" fill="#B2B6BB"/>
<path d="M680.78 522.93H599.06C598.32 522.93 597.72 522.33 597.72 521.59C597.72 520.85 598.32 520.25 599.06 520.25H680.78C681.52 520.25 682.12 520.85 682.12 521.59C682.12 522.33 681.52 522.93 680.78 522.93Z" fill="#B2B6BB"/>
<path d="M644.67 532.651H599.06C598.32 532.651 597.72 532.051 597.72 531.311C597.72 530.571 598.32 529.971 599.06 529.971H644.67C645.41 529.971 646.01 530.571 646.01 531.311C646.01 532.051 645.41 532.651 644.67 532.651Z" fill="#B2B6BB"/>
<path opacity="0.7" d="M688.65 500.639H599.77C598.64 500.639 597.72 499.719 597.72 498.589V442.329C597.72 441.199 598.64 440.279 599.77 440.279H688.65C689.78 440.279 690.7 441.199 690.7 442.329V498.589C690.7 499.719 689.78 500.639 688.65 500.639Z" fill="white"/>
<path d="M640.74 466.341V474.791C640.74 475.221 641.21 475.481 641.58 475.261L648.56 471.041C648.91 470.831 648.91 470.311 648.56 470.101L641.58 465.881C641.21 465.641 640.74 465.911 640.74 466.341Z" fill="white"/>
<path d="M804.09 524.979H709.19C708.33 524.979 707.63 524.279 707.63 523.419C707.63 522.559 708.33 521.859 709.19 521.859H804.09C804.95 521.859 805.65 522.559 805.65 523.419C805.65 524.289 804.95 524.979 804.09 524.979Z" fill="#B2B6BB"/>
<path d="M804.09 536.27H709.19C708.33 536.27 707.63 535.57 707.63 534.71C707.63 533.85 708.33 533.15 709.19 533.15H804.09C804.95 533.15 805.65 533.85 805.65 534.71C805.65 535.57 804.95 536.27 804.09 536.27Z" fill="#B2B6BB"/>
<path opacity="0.7" d="M813.22 510.369H710.01C708.7 510.369 707.63 509.299 707.63 507.989V442.659C707.63 441.349 708.7 440.279 710.01 440.279H813.22C814.53 440.279 815.6 441.349 815.6 442.659V507.989C815.6 509.309 814.54 510.369 813.22 510.369Z" fill="white"/>
<path d="M770.1 488.47H753.13C750.55 488.47 748.46 486.38 748.46 483.8V466.83C748.46 464.25 750.55 462.16 753.13 462.16H770.1C772.68 462.16 774.77 464.25 774.77 466.83V483.8C774.76 486.38 772.67 488.47 770.1 488.47Z" fill="#B2B6BB"/>
<path d="M757.59 470.54V480.35C757.59 480.85 758.13 481.15 758.56 480.9L766.67 476C767.08 475.75 767.08 475.15 766.67 474.91L758.56 470.01C758.13 469.74 757.59 470.04 757.59 470.54Z" fill="white"/>
<path d="M362.82 1006.35L362.13 1006.27C362.16 1005.95 365.64 974.319 366.1 971.209C368.13 957.309 375.9 909.799 390.54 882.039L391.15 882.359C376.57 910.029 368.81 957.439 366.79 971.309C366.33 974.409 362.85 1006.03 362.82 1006.35Z" fill="#868A91"/>
<path d="M363.34 954.431L362.65 954.391C364.49 920.971 352.74 872.201 352.62 871.711L353.29 871.551C353.41 872.041 365.18 920.911 363.34 954.431Z" fill="#868A91"/>
<path d="M389.21 885.111C389.21 885.111 389.32 852.261 418.06 850.391C418.06 850.391 420.43 879.211 389.21 885.111Z" class="change-color-in-svg" fill="#4D61FC"/>
<path d="M320.47 878.09C320.47 878.09 312.74 846.93 278.75 855.69C278.75 855.68 285.19 878.6 320.47 878.09Z" class="change-color-in-svg" fill="#4D61FC"/>
<path d="M357.28 890.901C357.28 890.901 367.38 864.341 343.89 850.391C343.88 850.391 333.56 876.521 357.28 890.901Z" class="change-color-in-svg" fill="#4D61FC"/>
<path d="M351.9 1006.31C351.89 1005.97 351.32 971.82 351.25 969.72C350.2 939.64 341.81 916.39 334.96 902.18C327.54 886.78 320.27 878.39 320.2 878.31L320.72 877.85C320.79 877.93 328.11 886.38 335.57 901.85C342.45 916.12 350.88 939.48 351.94 969.69C352.01 971.8 352.58 1005.94 352.59 1006.29L351.9 1006.31Z" fill="#868A91"/>
<path d="M359.74 1006.33L359.05 1006.28C359.07 1005.96 361.39 974.549 361.43 973.769C364.98 912.729 367.75 901.879 373.28 880.269C373.86 878.019 374.46 875.659 375.1 873.109L375.77 873.279C375.13 875.829 374.53 878.199 373.95 880.439C368.43 901.999 365.66 912.829 362.12 973.809C362.08 974.599 359.83 1005.04 359.74 1006.33Z" fill="#868A91"/>
<path d="M342.25 1006.34L341.56 1006.28C341.59 1005.93 344.4 971.631 344.5 969.991C347.31 924.301 336.23 892.081 326.45 873.101C314.99 850.861 301.05 838.341 294.48 835.351L294.77 834.721C300.5 837.331 314.62 848.641 327.06 872.781C336.88 891.831 348 924.171 345.19 970.031C345.09 971.681 342.27 1005.99 342.25 1006.34Z" fill="#868A91"/>
<path d="M336.14 1006.35L335.45 1006.28L338.8 975.02C338.81 974.98 339.21 972.2 339.49 967.72C340.53 950.81 339.75 909.75 310.17 893.85L310.5 893.24C340.44 909.33 341.23 950.71 340.19 967.76C339.91 972.27 339.5 975.07 339.5 975.1L336.14 1006.35Z" fill="#868A91"/>
<path d="M367.29 967.039L366.63 966.82C366.66 966.72 370.06 956.91 380.51 948.77L380.94 949.32C370.66 957.32 367.32 966.939 367.29 967.039Z" fill="#868A91"/>
<path d="M370.67 948.219L370.21 947.699C371.09 946.929 391.79 928.819 402.47 925.609L402.67 926.269C392.14 929.429 370.89 948.029 370.67 948.219Z" fill="#868A91"/>
<path d="M327.35 909.07C327.35 909.07 318.93 876.97 285.5 884.45C285.5 884.45 291.16 911.82 327.35 909.07Z" class="change-color-in-svg" fill="#4D61FC"/>
<path opacity="0.4" d="M327.35 909.07C327.35 909.07 318.93 876.97 285.5 884.45C285.5 884.45 291.16 911.82 327.35 909.07Z" fill="white"/>
<path d="M344.47 941.921C344.47 941.921 338.68 919.13 308.16 926.661C308.16 926.661 318.2 949.451 344.47 941.921Z" class="change-color-in-svg" fill="#4D61FC"/>
<path d="M365.21 927.141C365.21 927.141 368.04 891.341 405.38 886.971C405.38 886.971 407.19 921.991 365.21 927.141Z" class="change-color-in-svg" fill="#4D61FC"/>
<path d="M354.74 1006.31C354.74 1005.98 354.66 973.51 354.68 971.86C355.03 938.23 356.34 818 356.34 818L357.03 818.01C357.03 818.01 355.72 938.24 355.37 971.87C355.35 973.52 355.43 1005.98 355.43 1006.31H354.74Z" fill="#868A91"/>
<path d="M362.2 917.591C362.2 917.591 330.34 919.26 330.34 883.98C330.35 883.99 361.17 884.371 362.2 917.591Z" class="change-color-in-svg" fill="#4D61FC"/>
<path opacity="0.4" d="M362.2 917.591C362.2 917.591 330.34 919.26 330.34 883.98C330.35 883.99 361.17 884.371 362.2 917.591Z" fill="white"/>
<path d="M392.31 931.301C392.31 931.301 400.98 907.031 428.38 913.141C428.38 913.131 423.83 933.571 392.31 931.301Z" class="change-color-in-svg" fill="#4D61FC"/>
<path opacity="0.4" d="M392.31 931.301C392.31 931.301 400.98 907.031 428.38 913.141C428.38 913.131 423.83 933.571 392.31 931.301Z" fill="white"/>
<path d="M376.85 1004.57H320.47V1011.67H376.85V1004.57Z" fill="#868A91"/>
<path d="M369.7 1057.99H327.62L324.47 1011.67H372.85L369.7 1057.99Z" fill="#868A91"/>
<path d="M369.7 1057.99H327.62L324.47 1011.67H372.85L369.7 1057.99Z" fill="#868A91"/>
<path d="M376.85 1004.57H367.74V1011.67H359.28H324.47L324.6 1013.62H359.28L359.42 1057.99H369.7L372.85 1011.67H376.85V1004.57V1004.57Z" fill="#61656D"/>
<path d="M356.26 845.291C356.26 845.291 340.68 821.731 360.94 799.131C360.95 799.131 374.42 822.121 356.26 845.291Z" class="change-color-in-svg" fill="#4D61FC"/>
<path opacity="0.4" d="M356.26 845.291C356.26 845.291 340.68 821.731 360.94 799.131C360.95 799.131 374.42 822.121 356.26 845.291Z" fill="white"/>
<path d="M370.43 892.789C370.43 892.789 353.31 856.219 383.89 833.689C383.89 833.689 405 866.779 370.43 892.789Z" class="change-color-in-svg" fill="#4D61FC"/>
<path opacity="0.4" d="M370.4 892.789C370.4 892.789 353.28 856.219 383.86 833.689C383.85 833.689 404.97 866.779 370.4 892.789Z" fill="white"/>
<path d="M374.53 955.31C374.53 955.31 378.71 939.37 400.47 942.75C400.47 942.75 396.91 958.91 374.53 955.31Z" class="change-color-in-svg" fill="#4D61FC"/>
<path d="M344.77 962.641C344.77 962.641 340 931.741 368.23 928.131C368.24 928.131 375 954.921 344.77 962.641Z" class="change-color-in-svg" fill="#4D61FC"/>
<path opacity="0.4" d="M344.77 962.641C344.77 962.641 340 931.741 368.23 928.131C368.24 928.131 375 954.921 344.77 962.641Z" fill="white"/>
<path d="M286.88 830.329C286.88 830.329 303.88 828.589 307.16 844.879C307.16 844.879 291.84 846.749 286.88 830.329Z" class="change-color-in-svg" fill="#4D61FC"/>
<path opacity="0.3" d="M286.88 830.329C286.88 830.329 303.88 828.589 307.16 844.879C307.16 844.879 291.84 846.749 286.88 830.329Z" fill="white"/>
<path d="M328.36 828.609C328.36 828.609 307.21 850.619 327.86 874.589C327.86 874.599 348.63 851.139 328.36 828.609Z" class="change-color-in-svg" fill="#4D61FC"/>
<path opacity="0.4" d="M328.36 828.609C328.36 828.609 307.21 850.619 327.86 874.589C327.86 874.599 348.63 851.139 328.36 828.609Z" fill="white"/>
<path d="M1362.41 1059.17H239.24C238.89 1059.17 238.65 1058.93 238.65 1058.58C238.65 1058.23 238.89 1057.99 239.24 1057.99H1362.53C1362.88 1057.99 1363.12 1058.23 1363.12 1058.58C1363.12 1058.93 1362.76 1059.17 1362.41 1059.17Z" fill="#B1B5BA"/>
<path d="M989.53 242.471C989.45 242.471 989.37 242.481 989.29 242.481H983.4L980.99 243.511C965.44 247.331 953.91 261.361 953.91 278.091C953.91 295.031 965.74 309.201 981.59 312.811L983.4 313.711H989.53C1009.2 313.711 1025.14 297.761 1025.14 278.101C1025.14 258.421 1009.2 242.471 989.53 242.471Z" class="change-color-in-svg" fill="#4D61FC"/>
<path opacity="0.2" d="M989.53 242.471C989.45 242.471 989.37 242.481 989.29 242.481H983.4L980.99 243.511C965.44 247.331 953.91 261.361 953.91 278.091C953.91 295.031 965.74 309.201 981.59 312.811L982.76 313.711H989.52C1009.19 313.711 1025.13 297.761 1025.13 278.101C1025.14 258.421 1009.2 242.471 989.53 242.471Z" fill="black"/>
<path d="M983.4 313.7C963.73 313.7 947.79 297.75 947.79 278.09C947.79 258.42 963.74 242.48 983.4 242.48C1003.07 242.48 1019.01 258.43 1019.01 278.09C1019.02 297.76 1003.07 313.7 983.4 313.7Z" class="change-color-in-svg" fill="#4D61FC"/>
<path d="M977.56 294.72L963.72 280.88C963.28 280.44 963.28 279.73 963.72 279.29L967.87 275.14C968.31 274.7 969.02 274.7 969.46 275.14L978.35 284.03L996.09 266.31C996.53 265.87 997.24 265.87 997.68 266.31L1001.83 270.46C1002.27 270.9 1002.27 271.61 1001.83 272.05L979.14 294.72C978.72 295.16 978 295.16 977.56 294.72Z" fill="white"/>
<path d="M750.56 347.011L750.58 687.731C750.58 692.111 754.13 695.661 758.51 695.661L1251.84 695.641C1256.22 695.641 1259.77 692.091 1259.77 687.711L1259.75 346.991C1259.75 342.611 1256.2 339.061 1251.82 339.061L758.49 339.081C754.11 339.071 750.56 342.631 750.56 347.011Z" class="change-color-in-svg" fill="#4D61FC"/>
<path opacity="0.3" d="M750.56 347.011L750.58 687.731C750.58 692.111 754.13 695.661 758.51 695.661L1251.84 695.641C1256.22 695.641 1259.77 692.091 1259.77 687.711L1259.75 346.991C1259.75 342.611 1256.2 339.061 1251.82 339.061L758.49 339.081C754.11 339.071 750.56 342.631 750.56 347.011Z" fill="white"/>
<path opacity="0.3" d="M750.56 347.011L750.58 687.731C750.58 692.111 754.13 695.661 758.51 695.661L1251.84 695.641C1256.22 695.641 1259.77 692.091 1259.77 687.711L1259.75 346.991C1259.75 342.611 1256.2 339.061 1251.82 339.061L758.49 339.081C754.11 339.071 750.56 342.631 750.56 347.011Z" fill="white"/>
<path d="M1219.15 339.051L1217.75 362.791H1259.76V346.981C1259.76 342.601 1256.21 339.051 1251.83 339.051H1219.15Z" fill="#21252B"/>
<path d="M744.58 347.011L744.6 687.731C744.6 692.111 748.15 695.661 752.53 695.661L1245.86 695.641C1250.24 695.641 1253.79 692.091 1253.79 687.711L1253.77 346.991C1253.77 342.611 1250.22 339.061 1245.84 339.061L752.51 339.081C748.13 339.071 744.58 342.631 744.58 347.011Z" class="change-color-in-svg" fill="#4D61FC"/>
<path opacity="0.7" d="M744.58 347.011L744.6 687.731C744.6 692.111 748.15 695.661 752.53 695.661L1245.86 695.641C1250.24 695.641 1253.79 692.091 1253.79 687.711L1253.77 346.991C1253.77 342.611 1250.22 339.061 1245.84 339.061L752.51 339.081C748.13 339.071 744.58 342.631 744.58 347.011Z" fill="white"/>
<path d="M1174.7 403.029H826.25C824.14 403.029 822.42 401.319 822.42 399.199V383.859C822.42 381.749 824.13 380.029 826.25 380.029H1174.71C1176.82 380.029 1178.54 381.739 1178.54 383.859V399.199C1178.53 401.309 1176.82 403.029 1174.7 403.029Z" fill="white"/>
<path d="M1167.46 388.32C1165.76 386.62 1163 386.62 1161.3 388.32C1159.6 390.02 1159.6 392.78 1161.3 394.48C1162.85 396.03 1165.29 396.15 1167 394.86L1169.43 397.29L1170.27 396.45L1167.84 394.02C1169.12 392.31 1169.01 389.87 1167.46 388.32ZM1166.62 393.64C1165.38 394.88 1163.37 394.88 1162.14 393.64C1160.9 392.4 1160.91 390.4 1162.14 389.16C1163.38 387.92 1165.38 387.92 1166.62 389.16C1167.85 390.39 1167.85 392.4 1166.62 393.64Z" class="change-color-in-svg" fill="#4D61FC"/>
<path d="M1219.15 387.74H1206.25V389.01H1219.15V387.74Z" class="change-color-in-svg" fill="#4D61FC"/>
<path d="M1219.15 392.26H1206.25V393.53H1219.15V392.26Z" class="change-color-in-svg" fill="#4D61FC"/>
<path d="M1219.15 396.779H1206.25V398.049H1219.15V396.779Z" class="change-color-in-svg" fill="#4D61FC"/>
<path d="M1253.78 346.981C1253.78 342.601 1250.23 339.051 1245.85 339.051L752.52 339.071C748.14 339.071 744.59 342.621 744.59 347.001V362.831H1253.79L1253.78 346.981Z" fill="#3F4249"/>
<path d="M782.39 403.029H767.55C765.3 403.029 763.47 401.199 763.47 398.949V384.109C763.47 381.859 765.3 380.029 767.55 380.029H782.39C784.64 380.029 786.47 381.859 786.47 384.109V398.949C786.47 401.199 784.64 403.029 782.39 403.029Z" class="change-color-in-svg" fill="#4D61FC"/>
<path d="M771.45 387.34V395.92C771.45 396.36 771.93 396.62 772.3 396.4L779.39 392.11C779.75 391.89 779.75 391.37 779.39 391.15L772.3 386.86C771.92 386.64 771.45 386.91 771.45 387.34Z" fill="white"/>
<path opacity="0.5" d="M1007.46 579.531H767.82C765.42 579.531 763.47 577.581 763.47 575.181V422.661C763.47 420.261 765.42 418.311 767.82 418.311H1007.46C1009.86 418.311 1011.81 420.261 1011.81 422.661V575.181C1011.81 577.581 1009.86 579.531 1007.46 579.531Z" class="change-color-in-svg" fill="#4D61FC"/>
<path opacity="0.8" d="M1104.35 469.551H1028.89C1027.93 469.551 1027.15 468.771 1027.15 467.811V420.041C1027.15 419.081 1027.93 418.301 1028.89 418.301H1104.35C1105.31 418.301 1106.09 419.081 1106.09 420.041V467.811C1106.09 468.771 1105.31 469.551 1104.35 469.551Z" fill="white"/>
<path opacity="0.8" d="M1104.35 532.92H1028.89C1027.93 532.92 1027.15 532.14 1027.15 531.18V483.41C1027.15 482.45 1027.93 481.67 1028.89 481.67H1104.35C1105.31 481.67 1106.09 482.45 1106.09 483.41V531.18C1106.09 532.15 1105.31 532.92 1104.35 532.92Z" fill="white"/>
<path opacity="0.8" d="M1104.35 596.301H1028.89C1027.93 596.301 1027.15 595.521 1027.15 594.561V546.791C1027.15 545.831 1027.93 545.051 1028.89 545.051H1104.35C1105.31 545.051 1106.09 545.831 1106.09 546.791V594.561C1106.09 595.521 1105.31 596.301 1104.35 596.301Z" fill="white"/>
<path opacity="0.8" d="M1104.35 659.67H1028.89C1027.93 659.67 1027.15 658.89 1027.15 657.93V610.16C1027.15 609.2 1027.93 608.42 1028.89 608.42H1104.35C1105.31 608.42 1106.09 609.2 1106.09 610.16V657.93C1106.09 658.89 1105.31 659.67 1104.35 659.67Z" fill="white"/>
<g opacity="0.8">
<path opacity="0.8" d="M1228.8 422.821H1120.77C1119.52 422.821 1118.51 421.811 1118.51 420.561C1118.51 419.311 1119.52 418.301 1120.77 418.301H1228.8C1230.05 418.301 1231.06 419.311 1231.06 420.561C1231.06 421.811 1230.05 422.821 1228.8 422.821Z" fill="white"/>
<path opacity="0.8" d="M1228.8 439.17H1120.77C1119.52 439.17 1118.51 438.16 1118.51 436.91C1118.51 435.66 1119.52 434.65 1120.77 434.65H1228.8C1230.05 434.65 1231.06 435.66 1231.06 436.91C1231.06 438.16 1230.05 439.17 1228.8 439.17Z" fill="white"/>
<path opacity="0.8" d="M1180.65 455.52H1120.78C1119.53 455.52 1118.52 454.51 1118.52 453.26C1118.52 452.01 1119.53 451 1120.78 451H1180.65C1181.9 451 1182.91 452.01 1182.91 453.26C1182.9 454.51 1181.89 455.52 1180.65 455.52Z" fill="white"/>
</g>
<g opacity="0.8">
<path opacity="0.8" d="M1228.8 486.19H1120.77C1119.52 486.19 1118.51 485.18 1118.51 483.93C1118.51 482.68 1119.52 481.67 1120.77 481.67H1228.8C1230.05 481.67 1231.06 482.68 1231.06 483.93C1231.06 485.18 1230.05 486.19 1228.8 486.19Z" fill="white"/>
<path opacity="0.8" d="M1228.8 502.54H1120.77C1119.52 502.54 1118.51 501.53 1118.51 500.28C1118.51 499.03 1119.52 498.02 1120.77 498.02H1228.8C1230.05 498.02 1231.06 499.03 1231.06 500.28C1231.06 501.53 1230.05 502.54 1228.8 502.54Z" fill="white"/>
<path opacity="0.8" d="M1180.65 518.889H1120.78C1119.53 518.889 1118.52 517.879 1118.52 516.629C1118.52 515.379 1119.53 514.369 1120.78 514.369H1180.65C1181.9 514.369 1182.91 515.379 1182.91 516.629C1182.9 517.879 1181.89 518.889 1180.65 518.889Z" fill="white"/>
</g>
<g opacity="0.8">
<path opacity="0.8" d="M1228.8 549.559H1120.77C1119.52 549.559 1118.51 548.549 1118.51 547.299C1118.51 546.049 1119.52 545.039 1120.77 545.039H1228.8C1230.05 545.039 1231.06 546.049 1231.06 547.299C1231.06 548.549 1230.05 549.559 1228.8 549.559Z" fill="white"/>
<path opacity="0.8" d="M1228.8 565.909H1120.77C1119.52 565.909 1118.51 564.899 1118.51 563.649C1118.51 562.399 1119.52 561.389 1120.77 561.389H1228.8C1230.05 561.389 1231.06 562.399 1231.06 563.649C1231.06 564.899 1230.05 565.909 1228.8 565.909Z" fill="white"/>
<path opacity="0.8" d="M1180.65 582.258H1120.78C1119.53 582.258 1118.52 581.248 1118.52 579.998C1118.52 578.748 1119.53 577.738 1120.78 577.738H1180.65C1181.9 577.738 1182.91 578.748 1182.91 579.998C1182.9 581.248 1181.89 582.258 1180.65 582.258Z" fill="white"/>
</g>
<g opacity="0.8">
<path opacity="0.8" d="M1228.8 612.93H1120.77C1119.52 612.93 1118.51 611.92 1118.51 610.67C1118.51 609.42 1119.52 608.41 1120.77 608.41H1228.8C1230.05 608.41 1231.06 609.42 1231.06 610.67C1231.06 611.92 1230.05 612.93 1228.8 612.93Z" fill="white"/>
<path opacity="0.8" d="M1228.8 629.28H1120.77C1119.52 629.28 1118.51 628.27 1118.51 627.02C1118.51 625.77 1119.52 624.76 1120.77 624.76H1228.8C1230.05 624.76 1231.06 625.77 1231.06 627.02C1231.06 628.27 1230.05 629.28 1228.8 629.28Z" fill="white"/>
<path opacity="0.8" d="M1180.65 645.629H1120.78C1119.53 645.629 1118.52 644.619 1118.52 643.369C1118.52 642.119 1119.53 641.109 1120.78 641.109H1180.65C1181.9 641.109 1182.91 642.119 1182.91 643.369C1182.9 644.619 1181.89 645.629 1180.65 645.629Z" fill="white"/>
</g>
<g opacity="0.8">
<path opacity="0.8" d="M975.99 638.549H799.29C798.11 638.549 797.15 637.589 797.15 636.409V636.179C797.15 634.999 798.11 634.039 799.29 634.039H976C977.18 634.039 978.14 634.999 978.14 636.179V636.409C978.13 637.599 977.17 638.549 975.99 638.549Z" fill="white"/>
<path opacity="0.8" d="M975.99 654.899H799.29C798.11 654.899 797.15 653.939 797.15 652.759V652.529C797.15 651.349 798.11 650.389 799.29 650.389H976C977.18 650.389 978.14 651.349 978.14 652.529V652.759C978.13 653.949 977.17 654.899 975.99 654.899Z" fill="white"/>
<path opacity="0.8" d="M898.55 671.248H799.29C798.11 671.248 797.15 670.288 797.15 669.108V668.878C797.15 667.698 798.11 666.738 799.29 666.738H898.55C899.73 666.738 900.69 667.698 900.69 668.878V669.108C900.69 670.288 899.73 671.248 898.55 671.248Z" fill="white"/>
</g>
<g opacity="0.8">
<path opacity="0.8" d="M1228.8 676.299H1120.77C1119.52 676.299 1118.51 675.289 1118.51 674.039C1118.51 672.789 1119.52 671.779 1120.77 671.779H1228.8C1230.05 671.779 1231.06 672.789 1231.06 674.039C1231.06 675.289 1230.05 676.299 1228.8 676.299Z" fill="white"/>
<path opacity="0.8" d="M1228.8 692.649H1120.77C1119.52 692.649 1118.51 691.639 1118.51 690.389C1118.51 689.139 1119.52 688.129 1120.77 688.129H1228.8C1230.05 688.129 1231.06 689.139 1231.06 690.389C1231.06 691.639 1230.05 692.649 1228.8 692.649Z" fill="white"/>
</g>
<path opacity="0.8" d="M1106.09 695.651V673.541C1106.09 672.581 1105.31 671.801 1104.35 671.801H1028.89C1027.93 671.801 1027.15 672.581 1027.15 673.541V695.651H1106.09Z" fill="white"/>
<path d="M791.23 565.93V573.19L797.24 569.56L791.23 565.93Z" fill="white"/>
<path d="M807.08 573.19L813.08 569.56L807.08 565.93V573.19Z" fill="white"/>
<path d="M813.08 565.93V569.56V573.19H814.6V565.93H813.08Z" fill="white"/>
<path d="M780.94 573.19L774.94 569.56L780.94 565.93V573.19Z" fill="white"/>
<path d="M774.94 565.93V569.56V573.19H773.43V565.93H774.94Z" fill="white"/>
<path d="M1004.5 557.939H770.78V558.929H1004.5V557.939Z" fill="white"/>
<path d="M907.75 557.439H770.78V559.429H907.75V557.439Z" class="change-color-in-svg" fill="#4D61FC"/>
<path d="M908.2 561.78C910.04 561.78 911.54 560.28 911.54 558.44C911.54 556.59 910.05 555.1 908.2 555.1C906.35 555.1 904.86 556.59 904.86 558.44C904.86 560.29 906.35 561.78 908.2 561.78Z" class="change-color-in-svg" fill="#4D61FC"/>
<path d="M895.06 510.42H880.22C877.97 510.42 876.14 508.59 876.14 506.34V491.5C876.14 489.25 877.97 487.42 880.22 487.42H895.06C897.31 487.42 899.14 489.25 899.14 491.5V506.34C899.14 508.59 897.31 510.42 895.06 510.42Z" fill="white"/>
<path d="M884.12 494.73V503.31C884.12 503.75 884.6 504.01 884.97 503.79L892.06 499.5C892.42 499.28 892.42 498.76 892.06 498.54L884.97 494.25C884.59 494.03 884.12 494.3 884.12 494.73Z" class="change-color-in-svg" fill="#4D61FC"/>
<path opacity="0.5" d="M1069.64 448.62H1063.59C1062.67 448.62 1061.93 447.87 1061.93 446.96V440.91C1061.93 439.99 1062.67 439.25 1063.59 439.25H1069.64C1070.56 439.25 1071.3 440 1071.3 440.91V446.96C1071.31 447.88 1070.56 448.62 1069.64 448.62Z" class="change-color-in-svg" fill="#4D61FC"/>
<path opacity="0.8" d="M1065.18 442.23V445.73C1065.18 445.91 1065.37 446.02 1065.53 445.93L1068.42 444.18C1068.57 444.09 1068.57 443.88 1068.42 443.79L1065.53 442.04C1065.38 441.94 1065.18 442.05 1065.18 442.23Z" fill="white"/>
<path opacity="0.5" d="M1069.64 511.989H1063.59C1062.67 511.989 1061.93 511.239 1061.93 510.329V504.279C1061.93 503.359 1062.67 502.619 1063.59 502.619H1069.64C1070.56 502.619 1071.3 503.369 1071.3 504.279V510.329C1071.31 511.249 1070.56 511.989 1069.64 511.989Z" class="change-color-in-svg" fill="#4D61FC"/>
<path opacity="0.8" d="M1065.18 505.601V509.101C1065.18 509.281 1065.37 509.391 1065.53 509.301L1068.42 507.551C1068.57 507.461 1068.57 507.251 1068.42 507.161L1065.53 505.411C1065.38 505.311 1065.18 505.421 1065.18 505.601Z" fill="white"/>
<path opacity="0.5" d="M1069.64 575.36H1063.59C1062.67 575.36 1061.93 574.61 1061.93 573.7V567.65C1061.93 566.73 1062.67 565.99 1063.59 565.99H1069.64C1070.56 565.99 1071.3 566.74 1071.3 567.65V573.7C1071.31 574.62 1070.56 575.36 1069.64 575.36Z" class="change-color-in-svg" fill="#4D61FC"/>
<path opacity="0.8" d="M1065.18 568.97V572.47C1065.18 572.65 1065.37 572.76 1065.53 572.67L1068.42 570.92C1068.57 570.83 1068.57 570.62 1068.42 570.53L1065.53 568.78C1065.38 568.68 1065.18 568.79 1065.18 568.97Z" fill="white"/>
<path opacity="0.5" d="M1069.64 638.729H1063.59C1062.67 638.729 1061.93 637.989 1061.93 637.069V631.019C1061.93 630.099 1062.67 629.359 1063.59 629.359H1069.64C1070.56 629.359 1071.3 630.109 1071.3 631.019V637.069C1071.31 637.989 1070.56 638.729 1069.64 638.729Z" class="change-color-in-svg" fill="#4D61FC"/>
<path opacity="0.8" d="M1065.18 632.339V635.839C1065.18 636.019 1065.37 636.129 1065.53 636.039L1068.42 634.289C1068.57 634.199 1068.57 633.989 1068.42 633.899L1065.53 632.149C1065.38 632.049 1065.18 632.159 1065.18 632.339Z" fill="white"/>
<path d="M985.01 567.379H986.31V564.899H988.78V563.609H985.01V567.379Z" fill="white"/>
<path d="M993.01 563.609V564.899H995.48V567.379H996.78V563.609H993.01Z" fill="white"/>
<path d="M995.48 573.701H993.01V575H996.78V571.23H995.48V573.701Z" fill="white"/>
<path d="M986.31 571.23H985.01V575H988.78V573.701H986.31V571.23Z" fill="white"/>
<path d="M977.9 563.65H957.34V574.99H977.9V563.65Z" fill="white"/>
<path opacity="0.5" d="M937.28 612.09H799.39C798.15 612.09 797.15 611.09 797.15 609.85V605.75C797.15 604.51 798.15 603.51 799.39 603.51H937.28C938.52 603.51 939.52 604.51 939.52 605.75V609.85C939.53 611.09 938.52 612.09 937.28 612.09Z" class="change-color-in-svg" fill="#4D61FC"/>
<path d="M782.36 619.301H767.52C765.27 619.301 763.44 617.471 763.44 615.221V600.381C763.44 598.131 765.27 596.301 767.52 596.301H782.36C784.61 596.301 786.44 598.131 786.44 600.381V615.221C786.44 617.471 784.62 619.301 782.36 619.301Z" fill="white"/>
<path d="M782.18 611.23H768.02V614.79H782.18V611.23Z" class="change-color-in-svg" fill="#4D61FC"/>
<path opacity="0.5" d="M778.88 601.859H771.32V609.069H778.88V601.859Z" class="change-color-in-svg" fill="#4D61FC"/>
<path opacity="0.7" d="M1011.07 615.18H993.56C992.95 615.18 992.46 614.69 992.46 614.08V600.95C992.46 600.34 992.95 599.85 993.56 599.85H1011.07C1011.68 599.85 1012.17 600.34 1012.17 600.95V614.08C1012.17 614.69 1011.68 615.18 1011.07 615.18Z" fill="white"/>
<path d="M1002.98 610.721C1002.58 611.011 1002.04 611.011 1001.64 610.721C998.76 608.631 997.47 605.721 999.21 604.431C1000.23 603.671 1001.6 604.341 1002.11 605.211C1002.2 605.361 1002.41 605.361 1002.5 605.211C1003.02 604.341 1004.38 603.671 1005.4 604.431C1007.15 605.721 1005.86 608.631 1002.98 610.721Z" class="change-color-in-svg" fill="#4D61FC"/>
<path d="M763.47 355.869C766.19 355.869 768.39 353.669 768.39 350.949C768.39 348.229 766.19 346.029 763.47 346.029C760.75 346.029 758.55 348.229 758.55 350.949C758.55 353.669 760.75 355.869 763.47 355.869Z" class="change-color-in-svg" fill="#4D61FC"/>
<path d="M781.2 355.869C783.92 355.869 786.12 353.669 786.12 350.949C786.12 348.229 783.92 346.029 781.2 346.029C778.48 346.029 776.28 348.229 776.28 350.949C776.28 353.669 778.48 355.869 781.2 355.869Z" fill="#DADDDF"/>
<path d="M798.92 355.869C801.64 355.869 803.84 353.669 803.84 350.949C803.84 348.229 801.64 346.029 798.92 346.029C796.2 346.029 794 348.229 794 350.949C794 353.669 796.2 355.869 798.92 355.869Z" fill="#21252B"/>
<path d="M812.98 522.68L805.41 535.05L811.03 538.11L815.81 526.47C816.44 524.92 815.82 523.15 814.36 522.34C813.87 522.08 813.28 522.23 812.98 522.68Z" fill="#F99A9A"/>
<path opacity="0.15" d="M812.61 534.24L815.8 526.47C816.43 524.92 815.81 523.15 814.35 522.34C814.25 523.47 813.86 524.56 813.23 525.51L809.1 531.73C809.1 531.73 810.92 533.06 812.61 534.24Z" fill="black"/>
<path d="M834.55 512.181C833.79 511.431 832.58 511.381 831.76 512.071L798.62 540.091L796.49 549.601L805.4 558.511L832.3 541.061C832.31 541.061 832.31 541.051 832.32 541.051C833.09 540.561 833.6 539.701 833.6 538.721C833.6 537.291 832.51 536.141 831.13 535.981L831.06 535.881C831.6 535.321 831.95 534.561 831.95 533.721C831.95 532.001 830.56 530.611 828.84 530.611C828.66 530.611 828.49 530.631 828.32 530.661C828.8 530.111 829.1 529.401 829.1 528.611C829.1 526.891 827.71 525.501 825.99 525.501C825.57 525.501 825.17 525.591 824.8 525.741L834.62 515.051C835.37 514.241 835.34 512.971 834.55 512.181Z" fill="#F99A9A"/>
<path opacity="0.15" d="M805.4 558.519L832.3 541.069C832.31 541.069 832.31 541.059 832.32 541.059C833.09 540.569 833.6 539.709 833.6 538.729C833.6 537.879 833.21 537.119 832.6 536.619C832.23 537.939 831.32 539.069 830.04 539.669L809.66 550.679C808.89 551.099 807.93 550.869 807.42 550.149L799.75 539.139L798.62 540.099L802.79 555.909L805.4 558.519Z" fill="black"/>
<path d="M655.37 455.12C654.94 455.21 654.81 455.69 654.91 456.12C655 456.55 655.48 456.68 655.91 456.58L659.32 455.63C661 455.04 661.98 453.25 661.39 451.57C661.01 450.49 660.14 449.7 659.11 449.43C657.74 449.07 656.79 447.82 656.6 446.42C656.52 445.8 656.45 445.3 656.41 445.17C654.05 438.08 655.37 455.12 655.37 455.12Z" fill="#F99A9A"/>
<g opacity="0.15">
<path opacity="0.15" d="M661.39 451.57C661.09 450.71 660.48 450.05 659.73 449.67C659.77 449.76 659.81 449.85 659.85 449.95C660.44 451.63 659.46 453.42 657.78 454.01L655.33 454.69C655.35 454.96 655.36 455.11 655.36 455.11C654.93 455.2 654.8 455.68 654.9 456.11C654.99 456.54 655.47 456.67 655.9 456.57L659.31 455.62C661 455.04 661.98 453.25 661.39 451.57Z" fill="black"/>
</g>
<path d="M654.36 431.93L659.93 467.69C660.73 472.85 657.78 477.86 652.87 479.65L647.41 481.49L647.14 501.14L635.46 502.09L613.17 501.34L616.19 480.9L618.48 456.5L637.33 433.55L654.36 431.93Z" fill="#F99A9A"/>
<path d="M655.11 421.13C656.75 426.52 659.89 429.59 655.2 432.72L653.17 434.07C651.25 435.35 650.12 437.52 650.17 439.82C650.25 443.41 648.77 445.8 645.36 447.17C644.93 447.34 644.72 447.82 644.85 448.27L645.2 449.45L646.38 454C646.62 455.01 646.04 456.04 645.04 456.35C644.07 456.65 643.02 456.16 642.63 455.22L641.07 452.22L635.71 457.79L634.34 474.56C634.05 478.12 631.2 480.94 627.64 481.19L616.49 481.77C615.91 481.8 615.38 481.46 615.17 480.92C613.38 476.27 611.04 471.86 608.24 467.74C603.41 460.64 600.11 453.6 599.55 445.07C599.55 445.07 608.39 439.15 611.51 437.55L610.7 432.61C609.85 427.5 609.49 429.36 614.28 427.37L623.64 423.49C633.34 419.45 641.47 418.25 651.83 420.03C656.58 420.86 655.11 421.13 655.11 421.13Z" fill="#21252B"/>
<path d="M651.65 413.161C647.16 411.891 643.3 412.871 640.92 414.921C639.5 416.361 637.64 416.301 635.82 415.041C633.06 413.041 628.59 409.851 622.21 412.131C613.85 414.961 612.02 420.961 611.47 424.041C611.35 425.411 610.43 426.431 609.35 427.071C605.76 429.141 599.05 435.071 599.45 443.941C600.06 459.551 629.07 453.251 629.07 453.251C627.42 450.161 628.78 446.321 631.95 444.861L655.2 432.721C662.71 428.751 660.6 415.821 651.65 413.161Z" fill="#21252B"/>
<path opacity="0.15" d="M635.19 456.689L635.72 457.789C635.72 457.789 638.13 458.349 640.52 458.559L635.14 461.659L635.19 456.689Z" fill="black"/>
<path d="M641.45 453.15C642.61 456.29 643.79 458.56 639.54 458.87C631.44 459.44 629.09 448.87 633.43 446.11C637.25 443.7 639.21 447.44 639.21 447.44C639.21 447.44 639.2 447.44 641.45 453.15Z" fill="#FC9D9D"/>
<path opacity="0.3" d="M639 452.06C638.7 450.95 638.42 449.99 637.74 449.23C637.08 448.61 636.44 448.12 635.71 448.08C634.99 448.04 634.3 448.28 633.54 448.96C633.42 449.12 633.32 449.42 633.52 449.82C633.7 450.08 633.98 450.04 634.24 449.86C634.74 449.36 635.29 449.14 635.73 449.22C636.15 449.16 636.49 449.54 636.99 450.05C637.65 450.67 637.99 452.06 638.03 452.34L638.31 453.3C638.35 453.58 638.65 453.68 638.93 453.64C639.21 453.6 639.31 453.3 639.27 453.02L639 452.06Z" fill="black"/>
<path d="M660.34 450.14C659.95 450.17 659.58 449.92 659.46 449.52L655.83 437.4C655.7 436.95 655.96 436.48 656.42 436.35C656.88 436.22 657.34 436.48 657.47 436.94L661.1 449.06C661.23 449.51 660.97 449.98 660.51 450.11C660.46 450.13 660.4 450.14 660.34 450.14Z" fill="#21252B"/>
<path d="M657.97 441.77L639.19 447.31L639.67 448.94L658.45 443.4L657.97 441.77Z" fill="#21252B"/>
<path d="M554.49 677.53L550.44 676.73C549.84 676.61 549.23 676.87 548.9 677.38C548.38 678.19 548.75 679.27 549.66 679.58C550.96 680.03 552.78 680.66 554.38 681.22C556.55 681.97 558.95 681.44 560.61 679.86L565.62 675.05C568.7 672.1 569.79 667.64 568.43 663.6L561.43 642.85L545.32 649.79L551.83 662.44L551.52 664.72C551.27 666.6 551.45 668.52 552.06 670.32L554.49 677.53Z" fill="#FA9B9B"/>
<path opacity="0.15" d="M554.49 677.53L550.52 676.75C549.97 676.64 549.37 676.8 549.01 677.24C548.69 677.63 548.61 678.1 548.71 678.53L553.28 679.71C554.14 679.93 554.91 679.15 554.69 678.29L554.49 677.53Z" fill="black"/>
<path d="M617.75 1041.1L671.62 1042.37L650.98 1027.63C648.84 1026.09 647.19 1023.98 646.22 1021.59C645.45 1019.68 645.2 1017.6 645.34 1015.54L646.34 1000.86L617.29 1000.81L617.75 1041.1Z" fill="#FA9B9B"/>
<path opacity="0.15" d="M646.23 1021.59C645.45 1019.68 645.21 1017.6 645.35 1015.54L646.35 1000.86L617.3 1000.81L617.47 1016.24L634.07 1018.16C635.44 1018.32 636.55 1019.35 636.79 1020.71C637.51 1024.8 639.64 1033.18 645.16 1035.22C647.46 1036.07 651.66 1038.74 656.35 1042.03L671.62 1042.39L650.98 1027.65C648.85 1026.09 647.2 1023.98 646.23 1021.59Z" fill="black"/>
<path d="M616.32 1031.93V1052.09C616.32 1055.36 618.95 1057.99 622.22 1057.99H690.75C692.1 1057.99 693.22 1056.87 693.22 1055.52C693.22 1050.74 690.11 1046.44 685.57 1044.92L670.11 1039.82L650.51 1024.6C648.52 1023.01 645.65 1023.09 643.66 1024.76L634.97 1032.17C633.69 1033.29 631.94 1033.6 630.35 1033.13L619.35 1029.7C617.76 1029.3 616.32 1030.42 616.32 1031.93Z" fill="#3F4249"/>
<path d="M622.22 1057.99H690.75C692.1 1057.99 693.22 1056.87 693.22 1055.52C693.22 1054.64 693.14 1053.85 692.9 1053.05H616.4C616.88 1055.84 619.27 1057.99 622.22 1057.99Z" fill="black"/>
<path d="M650.11 1032.65C649.95 1032.65 649.79 1032.57 649.71 1032.49C649.47 1032.25 649.47 1031.85 649.71 1031.61L653.85 1027.15C654.09 1026.91 654.49 1026.91 654.73 1027.15C654.97 1027.39 654.97 1027.79 654.73 1028.03L650.59 1032.49C650.43 1032.57 650.27 1032.65 650.11 1032.65Z" fill="white"/>
<path d="M653.38 1035.2C653.22 1035.2 653.06 1035.12 652.98 1035.04C652.74 1034.8 652.74 1034.4 652.98 1034.16L657.12 1029.7C657.36 1029.46 657.76 1029.46 658 1029.7C658.24 1029.94 658.24 1030.34 658 1030.58L653.86 1035.04C653.7 1035.12 653.54 1035.2 653.38 1035.2Z" fill="white"/>
<path d="M656.65 1037.75C656.49 1037.75 656.33 1037.67 656.25 1037.59C656.01 1037.35 656.01 1036.95 656.25 1036.71L660.39 1032.25C660.63 1032.01 661.03 1032.01 661.27 1032.25C661.51 1032.49 661.51 1032.89 661.27 1033.13L657.13 1037.59C657.04 1037.67 656.88 1037.75 656.65 1037.75Z" fill="white"/>
<path d="M509.01 1018.13L462.78 1037.97L477.79 1018.81C480.52 1015.58 483.22 1012.69 484.97 1006.67L490.03 988.079L518.97 981.689L509.01 1018.13Z" fill="#FA9B9B"/>
<path opacity="0.15" d="M498.47 1022.65L509.01 1018.13L518.97 981.689L490.03 988.079L485.4 1005.12L500.9 1005.02C502.6 1005.01 503.81 1006.68 503.28 1008.29L498.47 1022.65Z" fill="black"/>
<path d="M513.89 1014.43L518.78 1033.99C519.57 1037.16 517.66 1040.35 514.49 1041.14L448 1057.76C446.69 1058.09 445.33 1057.28 445 1055.96C443.84 1051.32 445.81 1046.39 449.85 1043.82L463.61 1035.12L478.94 1015.6C480.49 1013.57 483.29 1012.95 485.63 1014.09L495.85 1019.17C497.36 1019.94 499.14 1019.83 500.57 1018.98L510.41 1012.99C511.86 1012.23 513.53 1012.96 513.89 1014.43Z" fill="#3F4249"/>
<path d="M514.49 1041.14L448 1057.76C446.69 1058.09 445.33 1057.28 445 1055.96C444.79 1055.11 444.67 1054.32 444.71 1053.49L518.93 1034.94C519.15 1037.76 517.35 1040.43 514.49 1041.14Z" fill="black"/>
<path d="M481.29 1023.32C481.44 1023.28 481.58 1023.17 481.64 1023.07C481.81 1022.78 481.72 1022.39 481.43 1022.22L476.33 1018.9C476.04 1018.73 475.65 1018.82 475.48 1019.11C475.31 1019.4 475.4 1019.79 475.69 1019.96L480.79 1023.28C480.96 1023.32 481.13 1023.36 481.29 1023.32Z" fill="white"/>
<path d="M478.74 1026.59C478.89 1026.55 479.03 1026.44 479.09 1026.34C479.26 1026.05 479.17 1025.66 478.88 1025.49L473.78 1022.17C473.49 1022 473.1 1022.09 472.93 1022.38C472.76 1022.67 472.85 1023.06 473.14 1023.23L478.24 1026.55C478.41 1026.59 478.58 1026.62 478.74 1026.59Z" fill="white"/>
<path d="M476.19 1029.85C476.34 1029.81 476.48 1029.7 476.54 1029.6C476.71 1029.31 476.62 1028.92 476.33 1028.75L471.23 1025.43C470.94 1025.26 470.55 1025.35 470.38 1025.64C470.21 1025.93 470.3 1026.32 470.59 1026.49L475.69 1029.81C475.78 1029.87 475.95 1029.91 476.19 1029.85Z" fill="white"/>
<path d="M606.72 500.679L610.74 493.699C611.35 492.649 612.49 492.009 613.7 492.059L647.4 493.299C648.94 493.359 650.23 494.479 650.51 495.989L651.76 502.849L683.23 512.639C689.5 514.589 694.88 518.699 698.42 524.229L729.22 572.389L798.63 540.079L809.12 558.429L729.15 606.069C722.59 609.979 714.15 608.469 709.36 602.529L680.23 566.459L657.79 693.709H562.5L570.67 558.549L542.73 585.819L565.21 652.219L549.37 659.739L510.97 588.849C507.49 582.419 508.43 574.489 513.33 569.059L564.88 511.889C569.58 506.679 576.08 503.429 583.07 502.799L606.72 500.679Z" class="change-color-in-svg" fill="#4D61FC"/>
<path d="M563.16 684.5L484.49 999.45L515.95 997.81L602.92 728.22C603.25 727.21 604.19 726.52 605.25 726.52C606.57 726.52 607.65 727.57 607.7 728.89L616.91 1011.31H646.81L658.43 684.5H563.16Z" fill="#21252B"/>
<path opacity="0.4" d="M591.24 731.909L504.11 998.43L515.94 997.81L602.91 728.219C603.24 727.209 604.18 726.52 605.24 726.52H598.67C595.3 726.52 592.3 728.699 591.24 731.909Z" fill="black"/>
<path d="M636.87 684.5L635.82 1011.31H646.8L659.39 684.5H636.87Z" fill="black"/>
<path d="M563.16 684.5L563.65 676.42H660.82L659.39 684.5H563.16Z" fill="black"/>
<path opacity="0.15" d="M564.46 658.67L564.61 658.85L564.95 653.28L564.68 652.49L550.24 659.35L551.19 661.2L560.21 657.59C561.71 656.98 563.44 657.42 564.46 658.67Z" fill="black"/>
<path opacity="0.15" d="M657.6 476.26L650.16 476.79C648.6 476.9 647.4 478.2 647.4 479.76V481.49L652.86 479.65C654.78 478.95 656.39 477.76 657.6 476.26Z" fill="black"/>
<path opacity="0.15" d="M651.76 502.849L651.47 501.229L614.74 499.819C614.32 499.799 613.96 500.109 613.91 500.519C613.85 500.989 614.21 501.409 614.68 501.429L651.76 502.849Z" fill="black"/>
<path d="M795.29 546.919C795.81 546.919 796.23 546.499 796.23 545.979C796.23 545.459 795.81 545.039 795.29 545.039C794.77 545.039 794.35 545.459 794.35 545.979C794.35 546.499 794.77 546.919 795.29 546.919Z" fill="white"/>
<path d="M794.35 566.351C794.87 566.351 795.29 565.931 795.29 565.411C795.29 564.891 794.87 564.471 794.35 564.471C793.83 564.471 793.41 564.891 793.41 565.411C793.41 565.931 793.83 566.351 794.35 566.351Z" fill="white"/>
<path d="M765.7 569.329C766.22 569.329 766.64 568.909 766.64 568.389C766.64 567.869 766.22 567.449 765.7 567.449C765.18 567.449 764.76 567.869 764.76 568.389C764.76 568.909 765.18 569.329 765.7 569.329Z" fill="white"/>
<path d="M728.28 575.95C728.8 575.95 729.22 575.53 729.22 575.01C729.22 574.49 728.8 574.07 728.28 574.07C727.76 574.07 727.34 574.49 727.34 575.01C727.34 575.53 727.76 575.95 728.28 575.95Z" fill="white"/>
<path d="M738.72 598.36C739.24 598.36 739.66 597.94 739.66 597.42C739.66 596.9 739.24 596.48 738.72 596.48C738.2 596.48 737.78 596.9 737.78 597.42C737.78 597.94 738.2 598.36 738.72 598.36Z" fill="white"/>
<path d="M708.97 549.441C709.49 549.441 709.91 549.021 709.91 548.501C709.91 547.981 709.49 547.561 708.97 547.561C708.45 547.561 708.03 547.981 708.03 548.501C708.03 549.021 708.45 549.441 708.97 549.441Z" fill="white"/>
<path d="M700.49 586.771C701.01 586.771 701.43 586.351 701.43 585.831C701.43 585.311 701.01 584.891 700.49 584.891C699.97 584.891 699.55 585.311 699.55 585.831C699.55 586.351 699.97 586.771 700.49 586.771Z" fill="white"/>
<path d="M642.53 508.31C643.05 508.31 643.47 507.89 643.47 507.37C643.47 506.85 643.05 506.43 642.53 506.43C642.01 506.43 641.59 506.85 641.59 507.37C641.59 507.89 642.01 508.31 642.53 508.31Z" fill="white"/>
<path d="M680.21 548.511C680.73 548.511 681.15 548.091 681.15 547.571C681.15 547.051 680.73 546.631 680.21 546.631C679.69 546.631 679.27 547.051 679.27 547.571C679.27 548.091 679.69 548.511 680.21 548.511Z" fill="white"/>
<path d="M665.61 583.04C666.13 583.04 666.55 582.62 666.55 582.1C666.55 581.58 666.13 581.16 665.61 581.16C665.09 581.16 664.67 581.58 664.67 582.1C664.67 582.62 665.09 583.04 665.61 583.04Z" fill="white"/>
<path d="M628.61 559.46C629.13 559.46 629.55 559.04 629.55 558.52C629.55 558 629.13 557.58 628.61 557.58C628.09 557.58 627.67 558 627.67 558.52C627.67 559.04 628.09 559.46 628.61 559.46Z" fill="white"/>
<path d="M651.76 535.181C652.28 535.181 652.7 534.761 652.7 534.241C652.7 533.721 652.28 533.301 651.76 533.301C651.24 533.301 650.82 533.721 650.82 534.241C650.82 534.761 651.24 535.181 651.76 535.181Z" fill="white"/>
<path d="M614.83 494.64C615.35 494.64 615.77 494.22 615.77 493.7C615.77 493.18 615.35 492.76 614.83 492.76C614.31 492.76 613.89 493.18 613.89 493.7C613.89 494.22 614.31 494.64 614.83 494.64Z" fill="white"/>
<path d="M588.21 552.931C588.73 552.931 589.15 552.511 589.15 551.991C589.15 551.471 588.73 551.051 588.21 551.051C587.69 551.051 587.27 551.471 587.27 551.991C587.27 552.511 587.69 552.931 588.21 552.931Z" fill="white"/>
<path d="M605.25 583.98C605.77 583.98 606.19 583.56 606.19 583.04C606.19 582.52 605.77 582.1 605.25 582.1C604.73 582.1 604.31 582.52 604.31 583.04C604.31 583.56 604.73 583.98 605.25 583.98Z" fill="white"/>
<path d="M633.76 599.29C634.28 599.29 634.7 598.87 634.7 598.35C634.7 597.83 634.28 597.41 633.76 597.41C633.24 597.41 632.82 597.83 632.82 598.35C632.82 598.87 633.24 599.29 633.76 599.29Z" fill="white"/>
<path d="M660.82 622.63C661.34 622.63 661.76 622.21 661.76 621.69C661.76 621.17 661.34 620.75 660.82 620.75C660.3 620.75 659.88 621.17 659.88 621.69C659.88 622.21 660.3 622.63 660.82 622.63Z" fill="white"/>
<path d="M575.37 599.29C575.89 599.29 576.31 598.87 576.31 598.35C576.31 597.83 575.89 597.41 575.37 597.41C574.85 597.41 574.43 597.83 574.43 598.35C574.43 598.87 574.85 599.29 575.37 599.29Z" fill="white"/>
<path d="M608.05 663.15C608.57 663.15 608.99 662.73 608.99 662.21C608.99 661.69 608.57 661.27 608.05 661.27C607.53 661.27 607.11 661.69 607.11 662.21C607.11 662.73 607.53 663.15 608.05 663.15Z" fill="white"/>
<path d="M571.45 639.829C571.97 639.829 572.39 639.409 572.39 638.889C572.39 638.369 571.97 637.949 571.45 637.949C570.93 637.949 570.51 638.369 570.51 638.889C570.51 639.409 570.93 639.829 571.45 639.829Z" fill="white"/>
<path d="M578.44 673.7C578.96 673.7 579.38 673.28 579.38 672.76C579.38 672.24 578.96 671.82 578.44 671.82C577.92 671.82 577.5 672.24 577.5 672.76C577.5 673.28 577.92 673.7 578.44 673.7Z" fill="white"/>
<path d="M607.12 624.499C607.64 624.499 608.06 624.079 608.06 623.559C608.06 623.039 607.64 622.619 607.12 622.619C606.6 622.619 606.18 623.039 606.18 623.559C606.18 624.079 606.6 624.499 607.12 624.499Z" fill="white"/>
<path d="M652.69 670.159C653.21 670.159 653.63 669.739 653.63 669.219C653.63 668.699 653.21 668.279 652.69 668.279C652.17 668.279 651.75 668.699 651.75 669.219C651.75 669.739 652.17 670.159 652.69 670.159Z" fill="white"/>
<path d="M635.15 640.771C635.67 640.771 636.09 640.351 636.09 639.831C636.09 639.311 635.67 638.891 635.15 638.891C634.63 638.891 634.21 639.311 634.21 639.831C634.21 640.351 634.63 640.771 635.15 640.771Z" fill="white"/>
<path d="M542.26 549.441C542.78 549.441 543.2 549.021 543.2 548.501C543.2 547.981 542.78 547.561 542.26 547.561C541.74 547.561 541.32 547.981 541.32 548.501C541.32 549.021 541.74 549.441 542.26 549.441Z" fill="white"/>
<path d="M515.47 589.05C515.99 589.05 516.41 588.63 516.41 588.11C516.41 587.59 515.99 587.17 515.47 587.17C514.95 587.17 514.53 587.59 514.53 588.11C514.53 588.63 514.95 589.05 515.47 589.05Z" fill="white"/>
<path d="M545.32 575.95C545.84 575.95 546.26 575.53 546.26 575.01C546.26 574.49 545.84 574.07 545.32 574.07C544.8 574.07 544.38 574.49 544.38 575.01C544.38 575.53 544.8 575.95 545.32 575.95Z" fill="white"/>
<path d="M544.39 609.191C544.91 609.191 545.33 608.771 545.33 608.251C545.33 607.731 544.91 607.311 544.39 607.311C543.87 607.311 543.45 607.731 543.45 608.251C543.45 608.771 543.87 609.191 544.39 609.191Z" fill="white"/>
<path d="M536.49 627.56C537.01 627.56 537.43 627.14 537.43 626.62C537.43 626.1 537.01 625.68 536.49 625.68C535.97 625.68 535.55 626.1 535.55 626.62C535.55 627.14 535.97 627.56 536.49 627.56Z" fill="white"/>
<path d="M556.14 648.21C556.66 648.21 557.08 647.79 557.08 647.27C557.08 646.75 556.66 646.33 556.14 646.33C555.62 646.33 555.2 646.75 555.2 647.27C555.2 647.79 555.62 648.21 556.14 648.21Z" fill="white"/>
<path d="M607.02 526.54C607.54 526.54 607.96 526.12 607.96 525.6C607.96 525.08 607.54 524.66 607.02 524.66C606.5 524.66 606.08 525.08 606.08 525.6C606.08 526.12 606.5 526.54 607.02 526.54Z" fill="white"/>
<path d="M579.37 512.521C579.89 512.521 580.31 512.101 580.31 511.581C580.31 511.061 579.89 510.641 579.37 510.641C578.85 510.641 578.43 511.061 578.43 511.581C578.43 512.101 578.85 512.521 579.37 512.521Z" fill="white"/>
<path d="M685.6 517.521C686.12 517.521 686.54 517.101 686.54 516.581C686.54 516.061 686.12 515.641 685.6 515.641C685.08 515.641 684.66 516.061 684.66 516.581C684.66 517.101 685.08 517.521 685.6 517.521Z" fill="white"/>
<path opacity="0.15" d="M680.21 566.481L676.32 561.641C673.41 558.031 667.65 559.161 666.32 563.601L632.64 676.421H660.81L680.21 566.481Z" fill="black"/>
<path opacity="0.15" d="M542.73 585.831L541.85 583.251C540.59 579.551 541.63 575.461 544.51 572.821L567.66 551.581C568.96 550.391 571.05 551.371 570.96 553.141L570.68 558.561L542.73 585.831Z" fill="black"/>
<path opacity="0.15" d="M729.21 572.4L698.41 524.24C694.87 518.71 689.49 514.6 683.22 512.65L677.44 510.85C677.44 510.85 688.44 519.71 692.05 525.77L720.65 573.75C721.32 574.87 722.72 575.31 723.91 574.78L729.21 572.4Z" fill="black"/>
<path opacity="0.15" d="M806.6 554.08L716.58 603.09C714.04 604.47 710.97 603.99 708.97 602.09L709.34 602.55C714.14 608.49 722.57 610 729.13 606.09L809.1 558.45L806.6 554.08Z" fill="black"/>
</svg>